G04 Layer_Color=32896*
%FSLAX25Y25*%
%MOIN*%
G70*
G01*
G75*
%ADD20C,0.01000*%
D20*
X67001Y35000D02*
X71000D01*
X67001Y38999D01*
Y39998D01*
X68001Y40998D01*
X70000D01*
X71000Y39998D01*
X65002D02*
X64002Y40998D01*
X62003D01*
X61003Y39998D01*
Y36000D01*
X62003Y35000D01*
X64002D01*
X65002Y36000D01*
Y39998D01*
X55005Y35000D02*
X59004D01*
X55005Y38999D01*
Y39998D01*
X56005Y40998D01*
X58004D01*
X59004Y39998D01*
X53006Y35000D02*
X51007D01*
X52006D01*
Y40998D01*
X53006Y39998D01*
X71000Y45000D02*
Y50998D01*
X68001D01*
X67001Y49998D01*
Y47999D01*
X68001Y46999D01*
X71000D01*
X69001D02*
X67001Y45000D01*
X62003D02*
X64002D01*
X65002Y46000D01*
Y47999D01*
X64002Y48999D01*
X62003D01*
X61003Y47999D01*
Y46999D01*
X65002D01*
X59004Y48999D02*
X57004Y45000D01*
X55005Y48999D01*
X53006Y45000D02*
Y46000D01*
X52006D01*
Y45000D01*
X53006D01*
X48007D02*
Y48999D01*
X46008Y50998D01*
X44009Y48999D01*
Y45000D01*
Y47999D01*
X48007D01*
X71000Y55000D02*
Y60998D01*
X68001D01*
X67001Y59998D01*
Y57999D01*
X68001Y56999D01*
X71000D01*
X69001D02*
X67001Y55000D01*
X65002D02*
Y60998D01*
X62003D01*
X61003Y59998D01*
Y57999D01*
X62003Y56999D01*
X65002D01*
X59004Y60998D02*
X57004D01*
X58004D01*
Y55000D01*
X59004D01*
X57004D01*
X50007Y60998D02*
X54005D01*
Y55000D01*
X50007D01*
X54005Y57999D02*
X52006D01*
X48007Y60998D02*
X44009Y55000D01*
Y60998D02*
X48007Y55000D01*
X42009Y60998D02*
X38011D01*
X40010D01*
Y55000D01*
M02*
