G04 Layer_Color=8388736*
%FSLAX25Y25*%
%MOIN*%
G70*
G01*
G75*
G04:AMPARAMS|DCode=34|XSize=33.59mil|YSize=41.47mil|CornerRadius=7.2mil|HoleSize=0mil|Usage=FLASHONLY|Rotation=180.000|XOffset=0mil|YOffset=0mil|HoleType=Round|Shape=RoundedRectangle|*
%AMROUNDEDRECTD34*
21,1,0.03359,0.02707,0,0,180.0*
21,1,0.01919,0.04147,0,0,180.0*
1,1,0.01440,-0.00960,0.01353*
1,1,0.01440,0.00960,0.01353*
1,1,0.01440,0.00960,-0.01353*
1,1,0.01440,-0.00960,-0.01353*
%
%ADD34ROUNDEDRECTD34*%
G04:AMPARAMS|DCode=35|XSize=47.37mil|YSize=59.18mil|CornerRadius=8.92mil|HoleSize=0mil|Usage=FLASHONLY|Rotation=270.000|XOffset=0mil|YOffset=0mil|HoleType=Round|Shape=RoundedRectangle|*
%AMROUNDEDRECTD35*
21,1,0.04737,0.04134,0,0,270.0*
21,1,0.02953,0.05918,0,0,270.0*
1,1,0.01784,-0.02067,-0.01476*
1,1,0.01784,-0.02067,0.01476*
1,1,0.01784,0.02067,0.01476*
1,1,0.01784,0.02067,-0.01476*
%
%ADD35ROUNDEDRECTD35*%
G04:AMPARAMS|DCode=36|XSize=33.59mil|YSize=41.47mil|CornerRadius=7.2mil|HoleSize=0mil|Usage=FLASHONLY|Rotation=270.000|XOffset=0mil|YOffset=0mil|HoleType=Round|Shape=RoundedRectangle|*
%AMROUNDEDRECTD36*
21,1,0.03359,0.02707,0,0,270.0*
21,1,0.01919,0.04147,0,0,270.0*
1,1,0.01440,-0.01353,-0.00960*
1,1,0.01440,-0.01353,0.00960*
1,1,0.01440,0.01353,0.00960*
1,1,0.01440,0.01353,-0.00960*
%
%ADD36ROUNDEDRECTD36*%
G04:AMPARAMS|DCode=37|XSize=47.37mil|YSize=78.87mil|CornerRadius=9.9mil|HoleSize=0mil|Usage=FLASHONLY|Rotation=180.000|XOffset=0mil|YOffset=0mil|HoleType=Round|Shape=RoundedRectangle|*
%AMROUNDEDRECTD37*
21,1,0.04737,0.05905,0,0,180.0*
21,1,0.02756,0.07887,0,0,180.0*
1,1,0.01981,-0.01378,0.02953*
1,1,0.01981,0.01378,0.02953*
1,1,0.01981,0.01378,-0.02953*
1,1,0.01981,-0.01378,-0.02953*
%
%ADD37ROUNDEDRECTD37*%
%ADD38O,0.03162X0.06902*%
G04:AMPARAMS|DCode=39|XSize=158mil|YSize=108mil|CornerRadius=19mil|HoleSize=0mil|Usage=FLASHONLY|Rotation=180.000|XOffset=0mil|YOffset=0mil|HoleType=Round|Shape=RoundedRectangle|*
%AMROUNDEDRECTD39*
21,1,0.15800,0.07000,0,0,180.0*
21,1,0.12000,0.10800,0,0,180.0*
1,1,0.03800,-0.06000,0.03500*
1,1,0.03800,0.06000,0.03500*
1,1,0.03800,0.06000,-0.03500*
1,1,0.03800,-0.06000,-0.03500*
%
%ADD39ROUNDEDRECTD39*%
G04:AMPARAMS|DCode=40|XSize=70.99mil|YSize=110.36mil|CornerRadius=11.87mil|HoleSize=0mil|Usage=FLASHONLY|Rotation=0.000|XOffset=0mil|YOffset=0mil|HoleType=Round|Shape=RoundedRectangle|*
%AMROUNDEDRECTD40*
21,1,0.07099,0.08661,0,0,0.0*
21,1,0.04724,0.11036,0,0,0.0*
1,1,0.02375,0.02362,-0.04331*
1,1,0.02375,-0.02362,-0.04331*
1,1,0.02375,-0.02362,0.04331*
1,1,0.02375,0.02362,0.04331*
%
%ADD40ROUNDEDRECTD40*%
G04:AMPARAMS|DCode=41|XSize=86.74mil|YSize=86.74mil|CornerRadius=15.81mil|HoleSize=0mil|Usage=FLASHONLY|Rotation=270.000|XOffset=0mil|YOffset=0mil|HoleType=Round|Shape=RoundedRectangle|*
%AMROUNDEDRECTD41*
21,1,0.08674,0.05512,0,0,270.0*
21,1,0.05512,0.08674,0,0,270.0*
1,1,0.03162,-0.02756,-0.02756*
1,1,0.03162,-0.02756,0.02756*
1,1,0.03162,0.02756,0.02756*
1,1,0.03162,0.02756,-0.02756*
%
%ADD41ROUNDEDRECTD41*%
G04:AMPARAMS|DCode=42|XSize=39.5mil|YSize=46.19mil|CornerRadius=11.87mil|HoleSize=0mil|Usage=FLASHONLY|Rotation=0.000|XOffset=0mil|YOffset=0mil|HoleType=Round|Shape=RoundedRectangle|*
%AMROUNDEDRECTD42*
21,1,0.03950,0.02244,0,0,0.0*
21,1,0.01575,0.04619,0,0,0.0*
1,1,0.02375,0.00787,-0.01122*
1,1,0.02375,-0.00787,-0.01122*
1,1,0.02375,-0.00787,0.01122*
1,1,0.02375,0.00787,0.01122*
%
%ADD42ROUNDEDRECTD42*%
%ADD43C,0.07600*%
G04:AMPARAMS|DCode=44|XSize=76mil|YSize=76mil|CornerRadius=14.2mil|HoleSize=0mil|Usage=FLASHONLY|Rotation=270.000|XOffset=0mil|YOffset=0mil|HoleType=Round|Shape=RoundedRectangle|*
%AMROUNDEDRECTD44*
21,1,0.07600,0.04760,0,0,270.0*
21,1,0.04760,0.07600,0,0,270.0*
1,1,0.02840,-0.02380,-0.02380*
1,1,0.02840,-0.02380,0.02380*
1,1,0.02840,0.02380,0.02380*
1,1,0.02840,0.02380,-0.02380*
%
%ADD44ROUNDEDRECTD44*%
G04:AMPARAMS|DCode=45|XSize=76mil|YSize=76mil|CornerRadius=14.2mil|HoleSize=0mil|Usage=FLASHONLY|Rotation=180.000|XOffset=0mil|YOffset=0mil|HoleType=Round|Shape=RoundedRectangle|*
%AMROUNDEDRECTD45*
21,1,0.07600,0.04760,0,0,180.0*
21,1,0.04760,0.07600,0,0,180.0*
1,1,0.02840,-0.02380,0.02380*
1,1,0.02840,0.02380,0.02380*
1,1,0.02840,0.02380,-0.02380*
1,1,0.02840,-0.02380,-0.02380*
%
%ADD45ROUNDEDRECTD45*%
D34*
X11953Y7000D02*
D03*
X6047D02*
D03*
X172953Y43000D02*
D03*
X167047D02*
D03*
X172953Y36000D02*
D03*
X167047D02*
D03*
X172953Y29000D02*
D03*
X167047D02*
D03*
X42953Y38000D02*
D03*
X37047D02*
D03*
X42953Y45000D02*
D03*
X37047D02*
D03*
X201953Y60000D02*
D03*
X196047D02*
D03*
X209047D02*
D03*
X214953D02*
D03*
D35*
X9000Y15063D02*
D03*
Y22937D02*
D03*
D36*
X166000Y59953D02*
D03*
Y54047D02*
D03*
X174000Y59953D02*
D03*
Y54047D02*
D03*
X30000Y39047D02*
D03*
Y44953D02*
D03*
X74000Y31047D02*
D03*
Y36953D02*
D03*
X44000Y54047D02*
D03*
Y59953D02*
D03*
X36000Y54047D02*
D03*
Y59953D02*
D03*
D37*
X68921Y63000D02*
D03*
X59079D02*
D03*
D38*
X66500Y52630D02*
D03*
X61500D02*
D03*
X56500D02*
D03*
X51500D02*
D03*
X66500Y31370D02*
D03*
X61500D02*
D03*
X56500D02*
D03*
X51500D02*
D03*
D39*
X88749Y56999D02*
D03*
X150249D02*
D03*
D40*
X194000Y46087D02*
D03*
Y31913D02*
D03*
D41*
X228000Y61500D02*
D03*
Y44500D02*
D03*
D42*
X215740Y52118D02*
D03*
X208260D02*
D03*
X212000Y41882D02*
D03*
D43*
X223000Y32000D02*
D03*
X18000Y39000D02*
D03*
X168000Y75000D02*
D03*
X178000D02*
D03*
X188000D02*
D03*
X218000D02*
D03*
X208000D02*
D03*
X198000D02*
D03*
X58000D02*
D03*
X48000D02*
D03*
X38000D02*
D03*
X8000Y65000D02*
D03*
X18000Y75000D02*
D03*
X8000D02*
D03*
X33000Y9000D02*
D03*
X43000D02*
D03*
X53000D02*
D03*
X63000D02*
D03*
X73000D02*
D03*
X83000D02*
D03*
X93000D02*
D03*
X103000D02*
D03*
X113000D02*
D03*
X123000D02*
D03*
X133000D02*
D03*
X143000D02*
D03*
X153000D02*
D03*
X163000D02*
D03*
X173000D02*
D03*
X183000D02*
D03*
X193000D02*
D03*
X203000D02*
D03*
X213000D02*
D03*
X23000Y19000D02*
D03*
X33000D02*
D03*
X43000D02*
D03*
X53000D02*
D03*
X63000D02*
D03*
X73000D02*
D03*
X83000D02*
D03*
X93000D02*
D03*
X103000D02*
D03*
X113000D02*
D03*
X123000D02*
D03*
X133000D02*
D03*
X143000D02*
D03*
X153000D02*
D03*
X163000D02*
D03*
X173000D02*
D03*
X183000D02*
D03*
X193000D02*
D03*
X203000D02*
D03*
X213000D02*
D03*
D44*
Y32000D02*
D03*
X228000Y75000D02*
D03*
X68000D02*
D03*
X18000Y65000D02*
D03*
D45*
Y49000D02*
D03*
X23000Y9000D02*
D03*
M02*
