G04 Layer_Physical_Order=1*
G04 Layer_Color=255*
%FSLAX25Y25*%
%MOIN*%
G70*
G01*
G75*
G04:AMPARAMS|DCode=10|XSize=25.59mil|YSize=33.47mil|CornerRadius=3.2mil|HoleSize=0mil|Usage=FLASHONLY|Rotation=180.000|XOffset=0mil|YOffset=0mil|HoleType=Round|Shape=RoundedRectangle|*
%AMROUNDEDRECTD10*
21,1,0.02559,0.02707,0,0,180.0*
21,1,0.01919,0.03347,0,0,180.0*
1,1,0.00640,-0.00960,0.01353*
1,1,0.00640,0.00960,0.01353*
1,1,0.00640,0.00960,-0.01353*
1,1,0.00640,-0.00960,-0.01353*
%
%ADD10ROUNDEDRECTD10*%
G04:AMPARAMS|DCode=11|XSize=39.37mil|YSize=51.18mil|CornerRadius=4.92mil|HoleSize=0mil|Usage=FLASHONLY|Rotation=270.000|XOffset=0mil|YOffset=0mil|HoleType=Round|Shape=RoundedRectangle|*
%AMROUNDEDRECTD11*
21,1,0.03937,0.04134,0,0,270.0*
21,1,0.02953,0.05118,0,0,270.0*
1,1,0.00984,-0.02067,-0.01476*
1,1,0.00984,-0.02067,0.01476*
1,1,0.00984,0.02067,0.01476*
1,1,0.00984,0.02067,-0.01476*
%
%ADD11ROUNDEDRECTD11*%
G04:AMPARAMS|DCode=12|XSize=25.59mil|YSize=33.47mil|CornerRadius=3.2mil|HoleSize=0mil|Usage=FLASHONLY|Rotation=270.000|XOffset=0mil|YOffset=0mil|HoleType=Round|Shape=RoundedRectangle|*
%AMROUNDEDRECTD12*
21,1,0.02559,0.02707,0,0,270.0*
21,1,0.01919,0.03347,0,0,270.0*
1,1,0.00640,-0.01353,-0.00960*
1,1,0.00640,-0.01353,0.00960*
1,1,0.00640,0.01353,0.00960*
1,1,0.00640,0.01353,-0.00960*
%
%ADD12ROUNDEDRECTD12*%
G04:AMPARAMS|DCode=13|XSize=39.37mil|YSize=70.87mil|CornerRadius=5.91mil|HoleSize=0mil|Usage=FLASHONLY|Rotation=180.000|XOffset=0mil|YOffset=0mil|HoleType=Round|Shape=RoundedRectangle|*
%AMROUNDEDRECTD13*
21,1,0.03937,0.05905,0,0,180.0*
21,1,0.02756,0.07087,0,0,180.0*
1,1,0.01181,-0.01378,0.02953*
1,1,0.01181,0.01378,0.02953*
1,1,0.01181,0.01378,-0.02953*
1,1,0.01181,-0.01378,-0.02953*
%
%ADD13ROUNDEDRECTD13*%
%ADD14O,0.02362X0.06102*%
G04:AMPARAMS|DCode=15|XSize=150mil|YSize=100mil|CornerRadius=15mil|HoleSize=0mil|Usage=FLASHONLY|Rotation=180.000|XOffset=0mil|YOffset=0mil|HoleType=Round|Shape=RoundedRectangle|*
%AMROUNDEDRECTD15*
21,1,0.15000,0.07000,0,0,180.0*
21,1,0.12000,0.10000,0,0,180.0*
1,1,0.03000,-0.06000,0.03500*
1,1,0.03000,0.06000,0.03500*
1,1,0.03000,0.06000,-0.03500*
1,1,0.03000,-0.06000,-0.03500*
%
%ADD15ROUNDEDRECTD15*%
G04:AMPARAMS|DCode=16|XSize=62.99mil|YSize=102.36mil|CornerRadius=7.87mil|HoleSize=0mil|Usage=FLASHONLY|Rotation=0.000|XOffset=0mil|YOffset=0mil|HoleType=Round|Shape=RoundedRectangle|*
%AMROUNDEDRECTD16*
21,1,0.06299,0.08661,0,0,0.0*
21,1,0.04724,0.10236,0,0,0.0*
1,1,0.01575,0.02362,-0.04331*
1,1,0.01575,-0.02362,-0.04331*
1,1,0.01575,-0.02362,0.04331*
1,1,0.01575,0.02362,0.04331*
%
%ADD16ROUNDEDRECTD16*%
G04:AMPARAMS|DCode=17|XSize=78.74mil|YSize=78.74mil|CornerRadius=11.81mil|HoleSize=0mil|Usage=FLASHONLY|Rotation=270.000|XOffset=0mil|YOffset=0mil|HoleType=Round|Shape=RoundedRectangle|*
%AMROUNDEDRECTD17*
21,1,0.07874,0.05512,0,0,270.0*
21,1,0.05512,0.07874,0,0,270.0*
1,1,0.02362,-0.02756,-0.02756*
1,1,0.02362,-0.02756,0.02756*
1,1,0.02362,0.02756,0.02756*
1,1,0.02362,0.02756,-0.02756*
%
%ADD17ROUNDEDRECTD17*%
G04:AMPARAMS|DCode=18|XSize=31.5mil|YSize=38.19mil|CornerRadius=7.87mil|HoleSize=0mil|Usage=FLASHONLY|Rotation=0.000|XOffset=0mil|YOffset=0mil|HoleType=Round|Shape=RoundedRectangle|*
%AMROUNDEDRECTD18*
21,1,0.03150,0.02244,0,0,0.0*
21,1,0.01575,0.03819,0,0,0.0*
1,1,0.01575,0.00787,-0.01122*
1,1,0.01575,-0.00787,-0.01122*
1,1,0.01575,-0.00787,0.01122*
1,1,0.01575,0.00787,0.01122*
%
%ADD18ROUNDEDRECTD18*%
%ADD19C,0.02000*%
%ADD20C,0.01000*%
%ADD21C,0.01500*%
%ADD22C,0.00800*%
%ADD23C,0.06800*%
G04:AMPARAMS|DCode=24|XSize=68mil|YSize=68mil|CornerRadius=10.2mil|HoleSize=0mil|Usage=FLASHONLY|Rotation=270.000|XOffset=0mil|YOffset=0mil|HoleType=Round|Shape=RoundedRectangle|*
%AMROUNDEDRECTD24*
21,1,0.06800,0.04760,0,0,270.0*
21,1,0.04760,0.06800,0,0,270.0*
1,1,0.02040,-0.02380,-0.02380*
1,1,0.02040,-0.02380,0.02380*
1,1,0.02040,0.02380,0.02380*
1,1,0.02040,0.02380,-0.02380*
%
%ADD24ROUNDEDRECTD24*%
G04:AMPARAMS|DCode=25|XSize=68mil|YSize=68mil|CornerRadius=10.2mil|HoleSize=0mil|Usage=FLASHONLY|Rotation=180.000|XOffset=0mil|YOffset=0mil|HoleType=Round|Shape=RoundedRectangle|*
%AMROUNDEDRECTD25*
21,1,0.06800,0.04760,0,0,180.0*
21,1,0.04760,0.06800,0,0,180.0*
1,1,0.02040,-0.02380,0.02380*
1,1,0.02040,0.02380,0.02380*
1,1,0.02040,0.02380,-0.02380*
1,1,0.02040,-0.02380,-0.02380*
%
%ADD25ROUNDEDRECTD25*%
%ADD26C,0.05500*%
%ADD27C,0.04500*%
%ADD28C,0.03000*%
%ADD29C,0.04000*%
G36*
X233932Y2289D02*
X48972D01*
X48641Y3088D01*
X51036Y5484D01*
X51956Y5103D01*
X53000Y4966D01*
X54044Y5103D01*
X55017Y5506D01*
X55853Y6147D01*
X56494Y6983D01*
X56897Y7956D01*
X57034Y9000D01*
X56897Y10044D01*
X56494Y11017D01*
X55853Y11853D01*
X55017Y12494D01*
X54044Y12897D01*
X53000Y13035D01*
X51956Y12897D01*
X50983Y12494D01*
X50147Y11853D01*
X49506Y11017D01*
X49103Y10044D01*
X48965Y9000D01*
X49103Y7956D01*
X49506Y6983D01*
X49569Y6901D01*
X46763Y4094D01*
X13993D01*
X13546Y4867D01*
X13576Y4984D01*
X13779Y5288D01*
X13850Y5647D01*
Y8353D01*
X13779Y8712D01*
X13576Y9016D01*
X13271Y9220D01*
X12912Y9291D01*
X10993D01*
X10736Y9240D01*
X10365Y9521D01*
X10096Y9822D01*
X10122Y9953D01*
Y12473D01*
X11067D01*
X11493Y12558D01*
X11854Y12799D01*
X12096Y13160D01*
X12180Y13587D01*
Y16539D01*
X12096Y16965D01*
X11854Y17327D01*
X11493Y17568D01*
X11067Y17653D01*
X6933D01*
X6507Y17568D01*
X6146Y17327D01*
X5904Y16965D01*
X5820Y16539D01*
Y13587D01*
X5904Y13160D01*
X6146Y12799D01*
X6507Y12558D01*
X6933Y12473D01*
X7878D01*
Y10417D01*
X6752Y9291D01*
X5088D01*
X4729Y9220D01*
X4424Y9016D01*
X4221Y8712D01*
X4150Y8353D01*
Y5647D01*
X4221Y5288D01*
X4424Y4983D01*
X4729Y4780D01*
X5088Y4709D01*
X7007D01*
X7366Y4780D01*
X7670Y4983D01*
X7873Y5288D01*
X7945Y5647D01*
Y7311D01*
X9302Y8669D01*
X9911Y8414D01*
X10055Y8291D01*
Y5647D01*
X10127Y5288D01*
X10330Y4983D01*
X10634Y4780D01*
X10933Y4721D01*
Y4047D01*
X11011Y3657D01*
X11232Y3326D01*
X11470Y3088D01*
X11138Y2289D01*
X2289D01*
Y88263D01*
X233932D01*
Y2289D01*
D02*
G37*
%LPC*%
G36*
X213000Y23034D02*
X211956Y22897D01*
X210983Y22494D01*
X210147Y21853D01*
X209506Y21017D01*
X209103Y20044D01*
X208965Y19000D01*
X209103Y17956D01*
X209506Y16983D01*
X210147Y16147D01*
X210983Y15506D01*
X211956Y15103D01*
X213000Y14965D01*
X214044Y15103D01*
X215017Y15506D01*
X215853Y16147D01*
X216494Y16983D01*
X216897Y17956D01*
X217035Y19000D01*
X216897Y20044D01*
X216494Y21017D01*
X215853Y21853D01*
X215017Y22494D01*
X214044Y22897D01*
X213000Y23034D01*
D02*
G37*
G36*
X82500Y23372D02*
X81851Y23287D01*
X80781Y22843D01*
X79862Y22138D01*
X79157Y21219D01*
X78713Y20149D01*
X78628Y19500D01*
X82500D01*
Y23372D01*
D02*
G37*
G36*
X113500D02*
Y19500D01*
X117372D01*
X117287Y20149D01*
X116843Y21219D01*
X116138Y22138D01*
X115219Y22843D01*
X114149Y23287D01*
X113500Y23372D01*
D02*
G37*
G36*
X83500D02*
Y19500D01*
X87372D01*
X87287Y20149D01*
X86843Y21219D01*
X86138Y22138D01*
X85219Y22843D01*
X84149Y23287D01*
X83500Y23372D01*
D02*
G37*
G36*
X203000Y23034D02*
X201956Y22897D01*
X200983Y22494D01*
X200147Y21853D01*
X199506Y21017D01*
X199103Y20044D01*
X198966Y19000D01*
X199103Y17956D01*
X199506Y16983D01*
X200147Y16147D01*
X200983Y15506D01*
X201956Y15103D01*
X203000Y14965D01*
X204044Y15103D01*
X205017Y15506D01*
X205853Y16147D01*
X206494Y16983D01*
X206897Y17956D01*
X207034Y19000D01*
X206897Y20044D01*
X206494Y21017D01*
X205853Y21853D01*
X205017Y22494D01*
X204044Y22897D01*
X203000Y23034D01*
D02*
G37*
G36*
X187372Y18500D02*
X183500D01*
Y14628D01*
X184149Y14713D01*
X185219Y15157D01*
X186138Y15862D01*
X186843Y16781D01*
X187287Y17851D01*
X187372Y18500D01*
D02*
G37*
G36*
X182500D02*
X178628D01*
X178713Y17851D01*
X179157Y16781D01*
X179862Y15862D01*
X180781Y15157D01*
X181851Y14713D01*
X182500Y14628D01*
Y18500D01*
D02*
G37*
G36*
X63000Y23034D02*
X61956Y22897D01*
X60983Y22494D01*
X60147Y21853D01*
X59506Y21017D01*
X59103Y20044D01*
X58965Y19000D01*
X59103Y17956D01*
X59506Y16983D01*
X60147Y16147D01*
X60983Y15506D01*
X61956Y15103D01*
X63000Y14965D01*
X64044Y15103D01*
X65017Y15506D01*
X65853Y16147D01*
X66494Y16983D01*
X66897Y17956D01*
X67035Y19000D01*
X66897Y20044D01*
X66494Y21017D01*
X65853Y21853D01*
X65017Y22494D01*
X64044Y22897D01*
X63000Y23034D01*
D02*
G37*
G36*
X193000D02*
X191956Y22897D01*
X190983Y22494D01*
X190147Y21853D01*
X189506Y21017D01*
X189103Y20044D01*
X188965Y19000D01*
X189103Y17956D01*
X189506Y16983D01*
X190147Y16147D01*
X190983Y15506D01*
X191956Y15103D01*
X193000Y14965D01*
X194044Y15103D01*
X195017Y15506D01*
X195853Y16147D01*
X196494Y16983D01*
X196897Y17956D01*
X197035Y19000D01*
X196897Y20044D01*
X196494Y21017D01*
X195853Y21853D01*
X195017Y22494D01*
X194044Y22897D01*
X193000Y23034D01*
D02*
G37*
G36*
X73000D02*
X71956Y22897D01*
X70983Y22494D01*
X70147Y21853D01*
X69506Y21017D01*
X69103Y20044D01*
X68966Y19000D01*
X69103Y17956D01*
X69506Y16983D01*
X70147Y16147D01*
X70983Y15506D01*
X71956Y15103D01*
X73000Y14965D01*
X74044Y15103D01*
X75017Y15506D01*
X75853Y16147D01*
X76494Y16983D01*
X76897Y17956D01*
X77034Y19000D01*
X76897Y20044D01*
X76494Y21017D01*
X75853Y21853D01*
X75017Y22494D01*
X74044Y22897D01*
X73000Y23034D01*
D02*
G37*
G36*
X163500Y23372D02*
Y19500D01*
X167372D01*
X167287Y20149D01*
X166843Y21219D01*
X166138Y22138D01*
X165219Y22843D01*
X164149Y23287D01*
X163500Y23372D01*
D02*
G37*
G36*
X76699Y36453D02*
X74500D01*
Y34647D01*
X75353D01*
X75868Y34750D01*
X76305Y35041D01*
X76597Y35478D01*
X76699Y35993D01*
Y36453D01*
D02*
G37*
G36*
X73500D02*
X71301D01*
Y35993D01*
X71403Y35478D01*
X71695Y35041D01*
X72132Y34750D01*
X72647Y34647D01*
X73500D01*
Y36453D01*
D02*
G37*
G36*
X64000Y41141D02*
X63181Y40978D01*
X62486Y40514D01*
X62022Y39819D01*
X61859Y39000D01*
X61951Y38537D01*
X60707Y37293D01*
X60464Y36929D01*
X60378Y36500D01*
X60378Y36500D01*
Y34633D01*
X60216Y34524D01*
X59822Y33935D01*
X59684Y33240D01*
Y29500D01*
X59822Y28805D01*
X60216Y28216D01*
X60805Y27822D01*
X61500Y27684D01*
X62195Y27822D01*
X62784Y28216D01*
X63178Y28805D01*
X63316Y29500D01*
Y33240D01*
X63178Y33935D01*
X62784Y34524D01*
X62622Y34633D01*
Y36035D01*
X63537Y36951D01*
X64000Y36859D01*
X64819Y37022D01*
X65514Y37486D01*
X65978Y38181D01*
X66141Y39000D01*
X65978Y39819D01*
X65514Y40514D01*
X64819Y40978D01*
X64000Y41141D01*
D02*
G37*
G36*
X193500Y52240D02*
X191638D01*
X190940Y52101D01*
X190349Y51706D01*
X189954Y51115D01*
X189815Y50417D01*
Y47631D01*
X188000D01*
X187376Y47507D01*
X186846Y47153D01*
X186493Y46624D01*
X186369Y46000D01*
X186493Y45376D01*
X186846Y44846D01*
X187376Y44493D01*
X188000Y44369D01*
X189815D01*
Y41756D01*
X189954Y41058D01*
X190349Y40467D01*
X190940Y40072D01*
X191638Y39933D01*
X193500D01*
Y46087D01*
Y52240D01*
D02*
G37*
G36*
X74000Y43122D02*
X73571Y43036D01*
X73207Y42793D01*
X72964Y42429D01*
X72878Y42000D01*
Y39258D01*
X72647D01*
X72132Y39156D01*
X71695Y38864D01*
X71403Y38427D01*
X71301Y37912D01*
Y37453D01*
X74000D01*
X76699D01*
Y37912D01*
X76597Y38427D01*
X76305Y38864D01*
X75868Y39156D01*
X75353Y39258D01*
X75122D01*
Y42000D01*
X75036Y42429D01*
X74793Y42793D01*
X74429Y43036D01*
X74000Y43122D01*
D02*
G37*
G36*
X183500Y23372D02*
Y19500D01*
X187372D01*
X187287Y20149D01*
X186843Y21219D01*
X186138Y22138D01*
X185219Y22843D01*
X184149Y23287D01*
X183500Y23372D01*
D02*
G37*
G36*
X182500D02*
X181851Y23287D01*
X180781Y22843D01*
X179862Y22138D01*
X179157Y21219D01*
X178713Y20149D01*
X178628Y19500D01*
X182500D01*
Y23372D01*
D02*
G37*
G36*
X8500Y22437D02*
X5412D01*
Y21461D01*
X5528Y20878D01*
X5857Y20385D01*
X6351Y20055D01*
X6933Y19939D01*
X8500D01*
Y22437D01*
D02*
G37*
G36*
X18000Y43034D02*
X16956Y42897D01*
X15983Y42494D01*
X15147Y41853D01*
X14506Y41017D01*
X14103Y40044D01*
X13965Y39000D01*
X14103Y37956D01*
X14506Y36983D01*
X15147Y36147D01*
X15983Y35506D01*
X16956Y35103D01*
X18000Y34966D01*
X19044Y35103D01*
X20017Y35506D01*
X20853Y36147D01*
X21494Y36983D01*
X21865Y37878D01*
X27750D01*
X27780Y37729D01*
X27983Y37424D01*
X28288Y37221D01*
X28647Y37150D01*
X28878D01*
Y34776D01*
X28486Y34514D01*
X28022Y33819D01*
X27859Y33000D01*
X28022Y32181D01*
X28486Y31486D01*
X29181Y31022D01*
X30000Y30859D01*
X30819Y31022D01*
X31514Y31486D01*
X31978Y32181D01*
X32141Y33000D01*
X31978Y33819D01*
X31514Y34514D01*
X31122Y34776D01*
Y37150D01*
X31353D01*
X31712Y37221D01*
X32017Y37424D01*
X32220Y37729D01*
X32291Y38088D01*
Y40007D01*
X32220Y40366D01*
X32017Y40670D01*
X31712Y40873D01*
X31353Y40945D01*
X28647D01*
X28288Y40873D01*
X27983Y40670D01*
X27780Y40366D01*
X27731Y40122D01*
X21865D01*
X21494Y41017D01*
X20853Y41853D01*
X20017Y42494D01*
X19044Y42897D01*
X18000Y43034D01*
D02*
G37*
G36*
X12588Y22437D02*
X9500D01*
Y19939D01*
X11067D01*
X11649Y20055D01*
X12143Y20385D01*
X12472Y20878D01*
X12588Y21461D01*
Y22437D01*
D02*
G37*
G36*
X167372Y18500D02*
X163500D01*
Y14628D01*
X164149Y14713D01*
X165219Y15157D01*
X166138Y15862D01*
X166843Y16781D01*
X167287Y17851D01*
X167372Y18500D01*
D02*
G37*
G36*
X73000Y13035D02*
X71956Y12897D01*
X70983Y12494D01*
X70147Y11853D01*
X69506Y11017D01*
X69103Y10044D01*
X68966Y9000D01*
X69103Y7956D01*
X69506Y6983D01*
X70147Y6147D01*
X70983Y5506D01*
X71956Y5103D01*
X73000Y4966D01*
X74044Y5103D01*
X75017Y5506D01*
X75853Y6147D01*
X76494Y6983D01*
X76897Y7956D01*
X77034Y9000D01*
X76897Y10044D01*
X76494Y11017D01*
X75853Y11853D01*
X75017Y12494D01*
X74044Y12897D01*
X73000Y13035D01*
D02*
G37*
G36*
X217372Y8500D02*
X213500D01*
Y4628D01*
X214149Y4713D01*
X215219Y5157D01*
X216138Y5862D01*
X216843Y6781D01*
X217287Y7851D01*
X217372Y8500D01*
D02*
G37*
G36*
X83000Y13035D02*
X81956Y12897D01*
X80983Y12494D01*
X80147Y11853D01*
X79506Y11017D01*
X79103Y10044D01*
X78966Y9000D01*
X79103Y7956D01*
X79506Y6983D01*
X80147Y6147D01*
X80983Y5506D01*
X81956Y5103D01*
X83000Y4966D01*
X84044Y5103D01*
X85017Y5506D01*
X85853Y6147D01*
X86494Y6983D01*
X86897Y7956D01*
X87034Y9000D01*
X86897Y10044D01*
X86494Y11017D01*
X85853Y11853D01*
X85017Y12494D01*
X84044Y12897D01*
X83000Y13035D01*
D02*
G37*
G36*
X163000D02*
X161956Y12897D01*
X160983Y12494D01*
X160147Y11853D01*
X159506Y11017D01*
X159103Y10044D01*
X158966Y9000D01*
X159103Y7956D01*
X159506Y6983D01*
X160147Y6147D01*
X160983Y5506D01*
X161956Y5103D01*
X163000Y4966D01*
X164044Y5103D01*
X165017Y5506D01*
X165853Y6147D01*
X166494Y6983D01*
X166897Y7956D01*
X167034Y9000D01*
X166897Y10044D01*
X166494Y11017D01*
X165853Y11853D01*
X165017Y12494D01*
X164044Y12897D01*
X163000Y13035D01*
D02*
G37*
G36*
X93000D02*
X91956Y12897D01*
X90983Y12494D01*
X90147Y11853D01*
X89506Y11017D01*
X89103Y10044D01*
X88965Y9000D01*
X89103Y7956D01*
X89506Y6983D01*
X90147Y6147D01*
X90983Y5506D01*
X91956Y5103D01*
X93000Y4966D01*
X94044Y5103D01*
X95017Y5506D01*
X95853Y6147D01*
X96494Y6983D01*
X96897Y7956D01*
X97035Y9000D01*
X96897Y10044D01*
X96494Y11017D01*
X95853Y11853D01*
X95017Y12494D01*
X94044Y12897D01*
X93000Y13035D01*
D02*
G37*
G36*
X67372Y8500D02*
X63500D01*
Y4628D01*
X64149Y4713D01*
X65219Y5157D01*
X66138Y5862D01*
X66843Y6781D01*
X67287Y7851D01*
X67372Y8500D01*
D02*
G37*
G36*
X62500D02*
X58628D01*
X58713Y7851D01*
X59157Y6781D01*
X59862Y5862D01*
X60781Y5157D01*
X61851Y4713D01*
X62500Y4628D01*
Y8500D01*
D02*
G37*
G36*
X142500D02*
X138628D01*
X138713Y7851D01*
X139157Y6781D01*
X139862Y5862D01*
X140781Y5157D01*
X141851Y4713D01*
X142500Y4628D01*
Y8500D01*
D02*
G37*
G36*
X212500D02*
X208628D01*
X208713Y7851D01*
X209157Y6781D01*
X209862Y5862D01*
X210781Y5157D01*
X211851Y4713D01*
X212500Y4628D01*
Y8500D01*
D02*
G37*
G36*
X147372D02*
X143500D01*
Y4628D01*
X144149Y4713D01*
X145219Y5157D01*
X146138Y5862D01*
X146843Y6781D01*
X147287Y7851D01*
X147372Y8500D01*
D02*
G37*
G36*
X173000Y13035D02*
X171956Y12897D01*
X170983Y12494D01*
X170147Y11853D01*
X169506Y11017D01*
X169103Y10044D01*
X168965Y9000D01*
X169103Y7956D01*
X169506Y6983D01*
X170147Y6147D01*
X170983Y5506D01*
X171956Y5103D01*
X173000Y4966D01*
X174044Y5103D01*
X175017Y5506D01*
X175853Y6147D01*
X176494Y6983D01*
X176897Y7956D01*
X177034Y9000D01*
X176897Y10044D01*
X176494Y11017D01*
X175853Y11853D01*
X175017Y12494D01*
X174044Y12897D01*
X173000Y13035D01*
D02*
G37*
G36*
X213500Y13372D02*
Y9500D01*
X217372D01*
X217287Y10149D01*
X216843Y11219D01*
X216138Y12138D01*
X215219Y12843D01*
X214149Y13287D01*
X213500Y13372D01*
D02*
G37*
G36*
X212500D02*
X211851Y13287D01*
X210781Y12843D01*
X209862Y12138D01*
X209157Y11219D01*
X208713Y10149D01*
X208628Y9500D01*
X212500D01*
Y13372D01*
D02*
G37*
G36*
X82500Y18500D02*
X78628D01*
X78713Y17851D01*
X79157Y16781D01*
X79862Y15862D01*
X80781Y15157D01*
X81851Y14713D01*
X82500Y14628D01*
Y18500D01*
D02*
G37*
G36*
X117372D02*
X113500D01*
Y14628D01*
X114149Y14713D01*
X115219Y15157D01*
X116138Y15862D01*
X116843Y16781D01*
X117287Y17851D01*
X117372Y18500D01*
D02*
G37*
G36*
X87372D02*
X83500D01*
Y14628D01*
X84149Y14713D01*
X85219Y15157D01*
X86138Y15862D01*
X86843Y16781D01*
X87287Y17851D01*
X87372Y18500D01*
D02*
G37*
G36*
X193000Y13035D02*
X191956Y12897D01*
X190983Y12494D01*
X190147Y11853D01*
X189506Y11017D01*
X189103Y10044D01*
X188965Y9000D01*
X189103Y7956D01*
X189506Y6983D01*
X190147Y6147D01*
X190983Y5506D01*
X191956Y5103D01*
X193000Y4966D01*
X194044Y5103D01*
X195017Y5506D01*
X195853Y6147D01*
X196494Y6983D01*
X196897Y7956D01*
X197035Y9000D01*
X196897Y10044D01*
X196494Y11017D01*
X195853Y11853D01*
X195017Y12494D01*
X194044Y12897D01*
X193000Y13035D01*
D02*
G37*
G36*
X183000D02*
X181956Y12897D01*
X180983Y12494D01*
X180147Y11853D01*
X179506Y11017D01*
X179103Y10044D01*
X178965Y9000D01*
X179103Y7956D01*
X179506Y6983D01*
X180147Y6147D01*
X180983Y5506D01*
X181956Y5103D01*
X183000Y4966D01*
X184044Y5103D01*
X185017Y5506D01*
X185853Y6147D01*
X186494Y6983D01*
X186897Y7956D01*
X187034Y9000D01*
X186897Y10044D01*
X186494Y11017D01*
X185853Y11853D01*
X185017Y12494D01*
X184044Y12897D01*
X183000Y13035D01*
D02*
G37*
G36*
X203000D02*
X201956Y12897D01*
X200983Y12494D01*
X200147Y11853D01*
X199506Y11017D01*
X199103Y10044D01*
X198966Y9000D01*
X199103Y7956D01*
X199506Y6983D01*
X200147Y6147D01*
X200983Y5506D01*
X201956Y5103D01*
X203000Y4966D01*
X204044Y5103D01*
X205017Y5506D01*
X205853Y6147D01*
X206494Y6983D01*
X206897Y7956D01*
X207034Y9000D01*
X206897Y10044D01*
X206494Y11017D01*
X205853Y11853D01*
X205017Y12494D01*
X204044Y12897D01*
X203000Y13035D01*
D02*
G37*
G36*
X63500Y13372D02*
Y9500D01*
X67372D01*
X67287Y10149D01*
X66843Y11219D01*
X66138Y12138D01*
X65219Y12843D01*
X64149Y13287D01*
X63500Y13372D01*
D02*
G37*
G36*
X62500D02*
X61851Y13287D01*
X60781Y12843D01*
X59862Y12138D01*
X59157Y11219D01*
X58713Y10149D01*
X58628Y9500D01*
X62500D01*
Y13372D01*
D02*
G37*
G36*
X227500Y74500D02*
X223560D01*
Y72620D01*
X223717Y71832D01*
X224164Y71164D01*
X224832Y70717D01*
X225620Y70560D01*
X227500D01*
Y74500D01*
D02*
G37*
G36*
X72440D02*
X68500D01*
Y70560D01*
X70380D01*
X71168Y70717D01*
X71836Y71164D01*
X72283Y71832D01*
X72440Y72620D01*
Y74500D01*
D02*
G37*
G36*
X232440D02*
X228500D01*
Y70560D01*
X230380D01*
X231168Y70717D01*
X231836Y71164D01*
X232283Y71832D01*
X232440Y72620D01*
Y74500D01*
D02*
G37*
G36*
X22372D02*
X18500D01*
Y70628D01*
X19149Y70713D01*
X20219Y71157D01*
X21138Y71862D01*
X21843Y72781D01*
X22287Y73851D01*
X22372Y74500D01*
D02*
G37*
G36*
X17500D02*
X13628D01*
X13713Y73851D01*
X14157Y72781D01*
X14862Y71862D01*
X15781Y71157D01*
X16851Y70713D01*
X17500Y70628D01*
Y74500D01*
D02*
G37*
G36*
X67500D02*
X63560D01*
Y72620D01*
X63717Y71832D01*
X64164Y71164D01*
X64832Y70717D01*
X65620Y70560D01*
X67500D01*
Y74500D01*
D02*
G37*
G36*
X8000Y69034D02*
X6956Y68897D01*
X5983Y68494D01*
X5147Y67853D01*
X4506Y67017D01*
X4103Y66044D01*
X3965Y65000D01*
X4103Y63956D01*
X4506Y62983D01*
X5147Y62147D01*
X5983Y61506D01*
X6956Y61103D01*
X8000Y60966D01*
X9044Y61103D01*
X10017Y61506D01*
X10853Y62147D01*
X11494Y62983D01*
X11897Y63956D01*
X12034Y65000D01*
X11897Y66044D01*
X11494Y67017D01*
X10853Y67853D01*
X10017Y68494D01*
X9044Y68897D01*
X8000Y69034D01*
D02*
G37*
G36*
X22440Y64500D02*
X18500D01*
Y60560D01*
X20380D01*
X21168Y60717D01*
X21836Y61164D01*
X22283Y61832D01*
X22440Y62620D01*
Y64500D01*
D02*
G37*
G36*
X17500Y69440D02*
X15620D01*
X14832Y69283D01*
X14164Y68836D01*
X13717Y68168D01*
X13560Y67380D01*
Y65500D01*
X17500D01*
Y69440D01*
D02*
G37*
G36*
X48000Y79035D02*
X46956Y78897D01*
X45983Y78494D01*
X45147Y77853D01*
X44506Y77017D01*
X44103Y76044D01*
X43966Y75000D01*
X44103Y73956D01*
X44506Y72983D01*
X45147Y72147D01*
X45983Y71506D01*
X46878Y71135D01*
Y68465D01*
X45535Y67122D01*
X39000D01*
X39000Y67122D01*
X38571Y67036D01*
X38207Y66793D01*
X35207Y63793D01*
X34964Y63429D01*
X34878Y63000D01*
X34878Y63000D01*
Y61850D01*
X34647D01*
X34288Y61779D01*
X33983Y61576D01*
X33780Y61271D01*
X33709Y60912D01*
Y58993D01*
X33780Y58634D01*
X33983Y58330D01*
X34288Y58127D01*
X34647Y58055D01*
X37353D01*
X37712Y58127D01*
X38017Y58330D01*
X38220Y58634D01*
X38291Y58993D01*
Y60912D01*
X38220Y61271D01*
X38017Y61576D01*
X37712Y61779D01*
X37384Y61844D01*
X37330Y62010D01*
X37236Y62650D01*
X39465Y64878D01*
X46000D01*
X46000Y64878D01*
X46429Y64964D01*
X46793Y65207D01*
X48793Y67207D01*
X48793Y67207D01*
X49036Y67571D01*
X49122Y68000D01*
X49122Y68000D01*
Y71135D01*
X50017Y71506D01*
X50853Y72147D01*
X51494Y72983D01*
X51897Y73956D01*
X52034Y75000D01*
X51897Y76044D01*
X51494Y77017D01*
X50853Y77853D01*
X50017Y78494D01*
X49044Y78897D01*
X48000Y79035D01*
D02*
G37*
G36*
X20380Y69440D02*
X18500D01*
Y65500D01*
X22440D01*
Y67380D01*
X22283Y68168D01*
X21836Y68836D01*
X21168Y69283D01*
X20380Y69440D01*
D02*
G37*
G36*
X17500Y79372D02*
X16851Y79287D01*
X15781Y78843D01*
X14862Y78138D01*
X14157Y77219D01*
X13713Y76149D01*
X13628Y75500D01*
X17500D01*
Y79372D01*
D02*
G37*
G36*
X67500Y79440D02*
X65620D01*
X64832Y79283D01*
X64164Y78836D01*
X63717Y78168D01*
X63560Y77380D01*
Y75500D01*
X67500D01*
Y79440D01*
D02*
G37*
G36*
X230380D02*
X228500D01*
Y75500D01*
X232440D01*
Y77380D01*
X232283Y78168D01*
X231836Y78836D01*
X231168Y79283D01*
X230380Y79440D01*
D02*
G37*
G36*
X18500Y79372D02*
Y75500D01*
X22372D01*
X22287Y76149D01*
X21843Y77219D01*
X21138Y78138D01*
X20219Y78843D01*
X19149Y79287D01*
X18500Y79372D01*
D02*
G37*
G36*
X70380Y79440D02*
X68500D01*
Y75500D01*
X72440D01*
Y77380D01*
X72283Y78168D01*
X71836Y78836D01*
X71168Y79283D01*
X70380Y79440D01*
D02*
G37*
G36*
X227500D02*
X225620D01*
X224832Y79283D01*
X224164Y78836D01*
X223717Y78168D01*
X223560Y77380D01*
Y75500D01*
X227500D01*
Y79440D01*
D02*
G37*
G36*
X58000Y79035D02*
X56956Y78897D01*
X55983Y78494D01*
X55147Y77853D01*
X54506Y77017D01*
X54103Y76044D01*
X53966Y75000D01*
X54103Y73956D01*
X54474Y73060D01*
X52207Y70793D01*
X51964Y70429D01*
X51878Y70000D01*
X51878Y70000D01*
Y64465D01*
X48488Y61074D01*
X46259D01*
X46220Y61271D01*
X46017Y61576D01*
X45712Y61779D01*
X45353Y61850D01*
X42647D01*
X42288Y61779D01*
X41983Y61576D01*
X41780Y61271D01*
X41709Y60912D01*
Y58993D01*
X41780Y58634D01*
X41983Y58330D01*
X42288Y58127D01*
X42647Y58055D01*
X45353D01*
X45712Y58127D01*
X46017Y58330D01*
X46220Y58634D01*
X46259Y58831D01*
X48953D01*
X48953Y58831D01*
X49382Y58917D01*
X49746Y59160D01*
X53793Y63207D01*
X53793Y63207D01*
X54036Y63571D01*
X54122Y64000D01*
X54122Y64000D01*
Y69535D01*
X56060Y71474D01*
X56956Y71103D01*
X58000Y70965D01*
X59044Y71103D01*
X60017Y71506D01*
X60853Y72147D01*
X61494Y72983D01*
X61897Y73956D01*
X62034Y75000D01*
X61897Y76044D01*
X61494Y77017D01*
X60853Y77853D01*
X60017Y78494D01*
X59044Y78897D01*
X58000Y79035D01*
D02*
G37*
G36*
X8000D02*
X6956Y78897D01*
X5983Y78494D01*
X5147Y77853D01*
X4506Y77017D01*
X4103Y76044D01*
X3965Y75000D01*
X4103Y73956D01*
X4506Y72983D01*
X5147Y72147D01*
X5983Y71506D01*
X6956Y71103D01*
X8000Y70965D01*
X9044Y71103D01*
X10017Y71506D01*
X10853Y72147D01*
X11494Y72983D01*
X11897Y73956D01*
X12034Y75000D01*
X11897Y76044D01*
X11494Y77017D01*
X10853Y77853D01*
X10017Y78494D01*
X9044Y78897D01*
X8000Y79035D01*
D02*
G37*
G36*
X161000Y83376D02*
X45000D01*
X44473Y83272D01*
X44027Y82973D01*
X44027Y82973D01*
X39685Y78632D01*
X39044Y78897D01*
X38000Y79035D01*
X36956Y78897D01*
X35983Y78494D01*
X35147Y77853D01*
X34506Y77017D01*
X34103Y76044D01*
X33966Y75000D01*
X34103Y73956D01*
X34368Y73315D01*
X29027Y67973D01*
X28728Y67527D01*
X28624Y67000D01*
Y46846D01*
X28288Y46779D01*
X27983Y46576D01*
X27780Y46271D01*
X27709Y45912D01*
Y43993D01*
X27780Y43634D01*
X27983Y43330D01*
X28288Y43127D01*
X28647Y43055D01*
X31353D01*
X31712Y43127D01*
X32017Y43330D01*
X32213Y43624D01*
X35154D01*
X35221Y43288D01*
X35424Y42983D01*
X35671Y42819D01*
Y40181D01*
X35424Y40017D01*
X35221Y39712D01*
X35150Y39353D01*
Y36647D01*
X35221Y36288D01*
X35424Y35983D01*
X35624Y35850D01*
Y31570D01*
X27027Y22973D01*
X26728Y22527D01*
X26649Y22129D01*
X26266Y21942D01*
X25824Y21875D01*
X25017Y22494D01*
X24044Y22897D01*
X23000Y23034D01*
X21956Y22897D01*
X20983Y22494D01*
X20147Y21853D01*
X19506Y21017D01*
X19103Y20044D01*
X18966Y19000D01*
X19103Y17956D01*
X19506Y16983D01*
X20147Y16147D01*
X20983Y15506D01*
X21956Y15103D01*
X23000Y14965D01*
X24044Y15103D01*
X25017Y15506D01*
X25824Y16125D01*
X25960Y16104D01*
X26624Y15837D01*
Y14460D01*
X25195Y13032D01*
X20620D01*
X19988Y12906D01*
X19452Y12548D01*
X19094Y12012D01*
X18968Y11380D01*
Y6620D01*
X19094Y5988D01*
X19452Y5452D01*
X19988Y5094D01*
X20620Y4968D01*
X25380D01*
X26012Y5094D01*
X26548Y5452D01*
X26906Y5988D01*
X27032Y6620D01*
Y10975D01*
X28973Y12916D01*
X28973Y12916D01*
X29272Y13363D01*
X29376Y13890D01*
Y15837D01*
X30040Y16104D01*
X30176Y16125D01*
X30983Y15506D01*
X31956Y15103D01*
X33000Y14965D01*
X34044Y15103D01*
X35017Y15506D01*
X35853Y16147D01*
X36078Y16441D01*
X36878Y16170D01*
Y14354D01*
X35018Y12494D01*
X35017Y12494D01*
X34044Y12897D01*
X33000Y13035D01*
X31956Y12897D01*
X30983Y12494D01*
X30147Y11853D01*
X29506Y11017D01*
X29103Y10044D01*
X28965Y9000D01*
X29103Y7956D01*
X29506Y6983D01*
X30147Y6147D01*
X30983Y5506D01*
X31956Y5103D01*
X33000Y4966D01*
X34044Y5103D01*
X35017Y5506D01*
X35853Y6147D01*
X36494Y6983D01*
X36897Y7956D01*
X37034Y9000D01*
X36897Y10044D01*
X36558Y10862D01*
X38793Y13097D01*
X38793Y13097D01*
X39036Y13461D01*
X39122Y13890D01*
Y15513D01*
X39661Y15767D01*
X39922Y15816D01*
X40781Y15157D01*
X41851Y14713D01*
X42500Y14628D01*
Y19000D01*
Y23372D01*
X42027Y23310D01*
X41692Y23778D01*
X41612Y24026D01*
X47835Y30248D01*
X49684D01*
Y29500D01*
X49822Y28805D01*
X50216Y28216D01*
X50805Y27822D01*
X51500Y27684D01*
X52195Y27822D01*
X52784Y28216D01*
X53178Y28805D01*
X53316Y29500D01*
Y33240D01*
X53178Y33935D01*
X52784Y34524D01*
X52622Y34633D01*
Y36500D01*
X52622Y36500D01*
X52536Y36929D01*
X52293Y37293D01*
X50793Y38793D01*
X50429Y39036D01*
X50000Y39122D01*
X50000Y39122D01*
X44850D01*
Y39353D01*
X44779Y39712D01*
X44576Y40017D01*
X44271Y40220D01*
X43912Y40291D01*
X42248D01*
X41122Y41417D01*
Y42160D01*
X41244Y42309D01*
X41922Y42723D01*
X41993Y42709D01*
X43912D01*
X44271Y42780D01*
X44576Y42983D01*
X44779Y43288D01*
X44850Y43647D01*
Y43878D01*
X50535D01*
X55378Y39035D01*
Y34633D01*
X55216Y34524D01*
X54822Y33935D01*
X54684Y33240D01*
Y29500D01*
X54822Y28805D01*
X55216Y28216D01*
X55378Y28107D01*
Y26965D01*
X54535Y26122D01*
X51000D01*
X51000Y26122D01*
X50571Y26036D01*
X50207Y25793D01*
X47207Y22793D01*
X46964Y22429D01*
X46955Y22387D01*
X46308Y22190D01*
X46097Y22170D01*
X45219Y22843D01*
X44149Y23287D01*
X43500Y23372D01*
Y19000D01*
Y14628D01*
X44149Y14713D01*
X45219Y15157D01*
X46078Y15816D01*
X46339Y15767D01*
X46878Y15513D01*
Y14354D01*
X45018Y12494D01*
X45017Y12494D01*
X44044Y12897D01*
X43000Y13035D01*
X41956Y12897D01*
X40983Y12494D01*
X40147Y11853D01*
X39506Y11017D01*
X39103Y10044D01*
X38965Y9000D01*
X39103Y7956D01*
X39506Y6983D01*
X40147Y6147D01*
X40983Y5506D01*
X41956Y5103D01*
X43000Y4966D01*
X44044Y5103D01*
X45017Y5506D01*
X45853Y6147D01*
X46494Y6983D01*
X46897Y7956D01*
X47034Y9000D01*
X46897Y10044D01*
X46558Y10862D01*
X48793Y13097D01*
X48793Y13097D01*
X49036Y13461D01*
X49122Y13890D01*
Y16170D01*
X49922Y16441D01*
X50147Y16147D01*
X50983Y15506D01*
X51956Y15103D01*
X53000Y14965D01*
X54044Y15103D01*
X55017Y15506D01*
X55853Y16147D01*
X56494Y16983D01*
X56897Y17956D01*
X57034Y19000D01*
X56897Y20044D01*
X56494Y21017D01*
X55853Y21853D01*
X55017Y22494D01*
X54044Y22897D01*
X53000Y23034D01*
X51956Y22897D01*
X51373Y22656D01*
X50920Y23334D01*
X51465Y23878D01*
X55000D01*
X55000Y23878D01*
X55429Y23964D01*
X55793Y24207D01*
X57293Y25707D01*
X57536Y26071D01*
X57622Y26500D01*
X57622Y26500D01*
Y28107D01*
X57784Y28216D01*
X58178Y28805D01*
X58316Y29500D01*
Y33240D01*
X58178Y33935D01*
X57784Y34524D01*
X57622Y34633D01*
Y39500D01*
X57536Y39929D01*
X57293Y40293D01*
X57293Y40293D01*
X51793Y45793D01*
X51429Y46036D01*
X51000Y46122D01*
X51000Y46122D01*
X44850D01*
Y46353D01*
X44779Y46712D01*
X44576Y47017D01*
X44271Y47220D01*
X44074Y47259D01*
Y48488D01*
X44793Y49207D01*
X44793Y49207D01*
X45036Y49571D01*
X45122Y50000D01*
X45122Y50000D01*
Y52150D01*
X45353D01*
X45712Y52221D01*
X46017Y52424D01*
X46220Y52729D01*
X46291Y53088D01*
Y55007D01*
X46220Y55366D01*
X46017Y55670D01*
X45712Y55873D01*
X45353Y55945D01*
X42647D01*
X42288Y55873D01*
X41983Y55670D01*
X41780Y55366D01*
X41709Y55007D01*
Y53088D01*
X41780Y52729D01*
X41983Y52424D01*
X42288Y52221D01*
X42647Y52150D01*
X42878D01*
Y50465D01*
X42160Y49746D01*
X41917Y49382D01*
X41831Y48953D01*
X41831Y48953D01*
Y47533D01*
X41041Y47430D01*
X40907Y47623D01*
X40793Y47793D01*
X40793Y47793D01*
X37236Y51350D01*
X37330Y51990D01*
X37384Y52156D01*
X37712Y52221D01*
X38017Y52424D01*
X38220Y52729D01*
X38291Y53088D01*
Y55007D01*
X38220Y55366D01*
X38017Y55670D01*
X37712Y55873D01*
X37353Y55945D01*
X34647D01*
X34288Y55873D01*
X33983Y55670D01*
X33780Y55366D01*
X33709Y55007D01*
Y53088D01*
X33780Y52729D01*
X33983Y52424D01*
X34288Y52221D01*
X34647Y52150D01*
X34878D01*
Y51000D01*
X34878Y51000D01*
X34964Y50571D01*
X35207Y50207D01*
X37323Y48091D01*
X36991Y47291D01*
X36088D01*
X35729Y47220D01*
X35424Y47017D01*
X35221Y46712D01*
X35154Y46376D01*
X32150D01*
X32017Y46576D01*
X31712Y46779D01*
X31376Y46846D01*
Y66430D01*
X36315Y71368D01*
X36956Y71103D01*
X38000Y70965D01*
X39044Y71103D01*
X40017Y71506D01*
X40853Y72147D01*
X41494Y72983D01*
X41897Y73956D01*
X42035Y75000D01*
X41897Y76044D01*
X41632Y76685D01*
X45570Y80624D01*
X160430D01*
X164368Y76685D01*
X164103Y76044D01*
X163965Y75000D01*
X164103Y73956D01*
X164368Y73315D01*
X160430Y69376D01*
X133000D01*
X132473Y69272D01*
X132027Y68973D01*
X107027Y43973D01*
X106728Y43527D01*
X106624Y43000D01*
Y22163D01*
X105960Y21896D01*
X105824Y21875D01*
X105017Y22494D01*
X104044Y22897D01*
X103000Y23034D01*
X101956Y22897D01*
X100983Y22494D01*
X100287Y21960D01*
X99783Y22103D01*
X99487Y22306D01*
Y26890D01*
X99487Y26890D01*
X99382Y27417D01*
X99084Y27863D01*
X94926Y32021D01*
X94480Y32319D01*
X93953Y32424D01*
X76181D01*
X76016Y32670D01*
X75712Y32873D01*
X75353Y32945D01*
X72647D01*
X72288Y32873D01*
X71983Y32670D01*
X71819Y32424D01*
X68316D01*
Y33240D01*
X68178Y33935D01*
X67784Y34524D01*
X67195Y34918D01*
X66500Y35056D01*
X65805Y34918D01*
X65216Y34524D01*
X64822Y33935D01*
X64684Y33240D01*
Y29500D01*
X64822Y28805D01*
X65216Y28216D01*
X65805Y27822D01*
X66500Y27684D01*
X67195Y27822D01*
X67784Y28216D01*
X68178Y28805D01*
X68316Y29500D01*
Y29671D01*
X71819D01*
X71983Y29424D01*
X72288Y29221D01*
X72647Y29150D01*
X75353D01*
X75712Y29221D01*
X76016Y29424D01*
X76181Y29671D01*
X93383D01*
X96734Y26320D01*
Y22019D01*
X95934Y21747D01*
X95853Y21853D01*
X95017Y22494D01*
X94044Y22897D01*
X93000Y23034D01*
X91956Y22897D01*
X90983Y22494D01*
X90147Y21853D01*
X89506Y21017D01*
X89103Y20044D01*
X88965Y19000D01*
X89103Y17956D01*
X89506Y16983D01*
X90147Y16147D01*
X90983Y15506D01*
X91956Y15103D01*
X93000Y14965D01*
X94044Y15103D01*
X95017Y15506D01*
X95853Y16147D01*
X95934Y16253D01*
X96734Y15981D01*
Y14000D01*
X96838Y13473D01*
X97137Y13027D01*
X99401Y10763D01*
X99103Y10044D01*
X98966Y9000D01*
X99103Y7956D01*
X99506Y6983D01*
X100147Y6147D01*
X100983Y5506D01*
X101956Y5103D01*
X103000Y4966D01*
X104044Y5103D01*
X105017Y5506D01*
X105853Y6147D01*
X106494Y6983D01*
X106897Y7956D01*
X107035Y9000D01*
X106897Y10044D01*
X106664Y10607D01*
X108973Y12916D01*
X109272Y13363D01*
X109376Y13890D01*
Y15226D01*
X110176Y15620D01*
X110781Y15157D01*
X111851Y14713D01*
X112500Y14628D01*
Y19000D01*
Y23372D01*
X111851Y23287D01*
X110781Y22843D01*
X110176Y22379D01*
X109376Y22774D01*
Y42430D01*
X133570Y66624D01*
X161000D01*
X161527Y66728D01*
X161973Y67027D01*
X166315Y71368D01*
X166956Y71103D01*
X168000Y70965D01*
X169044Y71103D01*
X170017Y71506D01*
X170853Y72147D01*
X171494Y72983D01*
X171897Y73956D01*
X172035Y75000D01*
X171897Y76044D01*
X171494Y77017D01*
X170853Y77853D01*
X170017Y78494D01*
X169044Y78897D01*
X168000Y79035D01*
X166956Y78897D01*
X166315Y78632D01*
X161973Y82973D01*
X161527Y83272D01*
X161000Y83376D01*
D02*
G37*
G36*
X218000Y79035D02*
X216956Y78897D01*
X215983Y78494D01*
X215147Y77853D01*
X214506Y77017D01*
X214103Y76044D01*
X213966Y75000D01*
X214103Y73956D01*
X214474Y73060D01*
X208535Y67122D01*
X202839D01*
X202508Y67922D01*
X206060Y71474D01*
X206956Y71103D01*
X208000Y70965D01*
X209044Y71103D01*
X210017Y71506D01*
X210853Y72147D01*
X211494Y72983D01*
X211897Y73956D01*
X212035Y75000D01*
X211897Y76044D01*
X211494Y77017D01*
X210853Y77853D01*
X210017Y78494D01*
X209044Y78897D01*
X208000Y79035D01*
X206956Y78897D01*
X205983Y78494D01*
X205147Y77853D01*
X204506Y77017D01*
X204103Y76044D01*
X203965Y75000D01*
X204103Y73956D01*
X204474Y73060D01*
X200535Y69122D01*
X194839D01*
X194508Y69922D01*
X196060Y71474D01*
X196956Y71103D01*
X198000Y70965D01*
X199044Y71103D01*
X200017Y71506D01*
X200853Y72147D01*
X201494Y72983D01*
X201897Y73956D01*
X202034Y75000D01*
X201897Y76044D01*
X201494Y77017D01*
X200853Y77853D01*
X200017Y78494D01*
X199044Y78897D01*
X198000Y79035D01*
X196956Y78897D01*
X195983Y78494D01*
X195147Y77853D01*
X194506Y77017D01*
X194103Y76044D01*
X193965Y75000D01*
X194103Y73956D01*
X194474Y73060D01*
X189805Y68391D01*
X189082Y68799D01*
X189122Y69000D01*
X189122Y69000D01*
Y71135D01*
X190017Y71506D01*
X190853Y72147D01*
X191494Y72983D01*
X191897Y73956D01*
X192034Y75000D01*
X191897Y76044D01*
X191494Y77017D01*
X190853Y77853D01*
X190017Y78494D01*
X189044Y78897D01*
X188000Y79035D01*
X186956Y78897D01*
X185983Y78494D01*
X185147Y77853D01*
X184506Y77017D01*
X184103Y76044D01*
X183966Y75000D01*
X184103Y73956D01*
X184506Y72983D01*
X185147Y72147D01*
X185983Y71506D01*
X186878Y71135D01*
Y69465D01*
X185535Y68122D01*
X178000D01*
X177571Y68036D01*
X177207Y67793D01*
X177207Y67793D01*
X173207Y63793D01*
X172964Y63429D01*
X172878Y63000D01*
X172878Y63000D01*
Y61850D01*
X172647D01*
X172288Y61779D01*
X171983Y61576D01*
X171780Y61271D01*
X171709Y60912D01*
Y58993D01*
X171780Y58634D01*
X171983Y58330D01*
X172288Y58127D01*
X172647Y58055D01*
X175353D01*
X175712Y58127D01*
X176017Y58330D01*
X176220Y58634D01*
X176291Y58993D01*
Y60912D01*
X176220Y61271D01*
X176017Y61576D01*
X175712Y61779D01*
X175384Y61844D01*
X175330Y62010D01*
X175236Y62650D01*
X178465Y65878D01*
X186000D01*
X186000Y65878D01*
X186201Y65918D01*
X186609Y65195D01*
X177207Y55793D01*
X177009Y55497D01*
X176651Y55438D01*
X176155Y55463D01*
X176017Y55670D01*
X175712Y55873D01*
X175353Y55945D01*
X172647D01*
X172288Y55873D01*
X171983Y55670D01*
X171780Y55366D01*
X171709Y55007D01*
Y53088D01*
X171780Y52729D01*
X171983Y52424D01*
X172288Y52221D01*
X172647Y52150D01*
X172878D01*
Y50776D01*
X172486Y50514D01*
X172022Y49819D01*
X171859Y49000D01*
X172022Y48181D01*
X172486Y47486D01*
X173181Y47022D01*
X174000Y46859D01*
X174819Y47022D01*
X175514Y47486D01*
X175978Y48181D01*
X176052Y48551D01*
X176078Y48685D01*
X176877Y48606D01*
X176878Y48590D01*
Y45465D01*
X175650Y44236D01*
X175010Y44330D01*
X174844Y44384D01*
X174779Y44712D01*
X174576Y45017D01*
X174271Y45220D01*
X173912Y45291D01*
X171993D01*
X171634Y45220D01*
X171330Y45017D01*
X171127Y44712D01*
X171055Y44353D01*
Y41647D01*
X171127Y41288D01*
X171330Y40983D01*
X171634Y40780D01*
X171993Y40709D01*
X173912D01*
X174271Y40780D01*
X174576Y40983D01*
X174779Y41288D01*
X174850Y41647D01*
Y41878D01*
X176000D01*
X176000Y41878D01*
X176429Y41964D01*
X176793Y42207D01*
X178078Y43492D01*
X178878Y43161D01*
Y40465D01*
X175650Y37236D01*
X175010Y37330D01*
X174844Y37384D01*
X174779Y37712D01*
X174576Y38017D01*
X174271Y38220D01*
X173912Y38291D01*
X171993D01*
X171634Y38220D01*
X171330Y38017D01*
X171127Y37712D01*
X171055Y37353D01*
Y34647D01*
X171127Y34288D01*
X171330Y33983D01*
X171634Y33780D01*
X171993Y33709D01*
X173912D01*
X174271Y33780D01*
X174576Y33983D01*
X174779Y34288D01*
X174850Y34647D01*
Y34878D01*
X176000D01*
X176000Y34878D01*
X176429Y34964D01*
X176793Y35207D01*
X180078Y38492D01*
X180878Y38161D01*
Y35707D01*
X175624Y30452D01*
X174779Y30712D01*
X174576Y31017D01*
X174271Y31220D01*
X173912Y31291D01*
X171993D01*
X171634Y31220D01*
X171330Y31017D01*
X171127Y30712D01*
X171055Y30353D01*
Y27647D01*
X171127Y27288D01*
X171330Y26983D01*
X171634Y26780D01*
X171993Y26709D01*
X173912D01*
X174271Y26780D01*
X174576Y26983D01*
X174779Y27288D01*
X174850Y27647D01*
Y27878D01*
X175757D01*
X175757Y27878D01*
X176187Y27964D01*
X176550Y28207D01*
X182078Y33735D01*
X182878Y33404D01*
Y30465D01*
X174940Y22526D01*
X174044Y22897D01*
X173000Y23034D01*
X171956Y22897D01*
X170983Y22494D01*
X170147Y21853D01*
X169506Y21017D01*
X169103Y20044D01*
X168965Y19000D01*
X169103Y17956D01*
X169506Y16983D01*
X170147Y16147D01*
X170983Y15506D01*
X171956Y15103D01*
X173000Y14965D01*
X174044Y15103D01*
X175017Y15506D01*
X175853Y16147D01*
X176494Y16983D01*
X176897Y17956D01*
X177034Y19000D01*
X176897Y20044D01*
X176526Y20940D01*
X184793Y29207D01*
X185036Y29571D01*
X185122Y30000D01*
X185122Y30000D01*
Y51535D01*
X192465Y58878D01*
X194150D01*
Y58647D01*
X194221Y58288D01*
X194424Y57983D01*
X194729Y57780D01*
X195088Y57709D01*
X197007D01*
X197366Y57780D01*
X197670Y57983D01*
X197873Y58288D01*
X197945Y58647D01*
Y61353D01*
X197873Y61712D01*
X197670Y62016D01*
X197366Y62220D01*
X197007Y62291D01*
X195088D01*
X194729Y62220D01*
X194424Y62016D01*
X194221Y61712D01*
X194150Y61353D01*
Y61122D01*
X192839D01*
X192508Y61922D01*
X195465Y64878D01*
X209000D01*
X209000Y64878D01*
X209429Y64964D01*
X209793Y65207D01*
X216060Y71474D01*
X216956Y71103D01*
X218000Y70965D01*
X219044Y71103D01*
X220017Y71506D01*
X220853Y72147D01*
X221494Y72983D01*
X221897Y73956D01*
X222035Y75000D01*
X221897Y76044D01*
X221494Y77017D01*
X220853Y77853D01*
X220017Y78494D01*
X219044Y78897D01*
X218000Y79035D01*
D02*
G37*
G36*
X178000D02*
X176956Y78897D01*
X175983Y78494D01*
X175147Y77853D01*
X174506Y77017D01*
X174103Y76044D01*
X173966Y75000D01*
X174103Y73956D01*
X174474Y73060D01*
X165207Y63793D01*
X164964Y63429D01*
X164878Y63000D01*
X164878Y63000D01*
Y61850D01*
X164647D01*
X164288Y61779D01*
X163983Y61576D01*
X163780Y61271D01*
X163709Y60912D01*
Y58993D01*
X163780Y58634D01*
X163983Y58330D01*
X164288Y58127D01*
X164647Y58055D01*
X167353D01*
X167712Y58127D01*
X168017Y58330D01*
X168220Y58634D01*
X168291Y58993D01*
Y60912D01*
X168220Y61271D01*
X168017Y61576D01*
X167712Y61779D01*
X167384Y61844D01*
X167330Y62010D01*
X167236Y62650D01*
X176060Y71474D01*
X176956Y71103D01*
X178000Y70965D01*
X179044Y71103D01*
X180017Y71506D01*
X180853Y72147D01*
X181494Y72983D01*
X181897Y73956D01*
X182035Y75000D01*
X181897Y76044D01*
X181494Y77017D01*
X180853Y77853D01*
X180017Y78494D01*
X179044Y78897D01*
X178000Y79035D01*
D02*
G37*
G36*
X51000Y52130D02*
X49276D01*
Y50760D01*
X49445Y49909D01*
X49927Y49187D01*
X50649Y48705D01*
X51000Y48636D01*
Y52130D01*
D02*
G37*
G36*
X230756Y66072D02*
X225244D01*
X224549Y65934D01*
X223960Y65540D01*
X223566Y64951D01*
X223428Y64256D01*
Y59235D01*
X219847Y55654D01*
X219493Y55124D01*
X219369Y54500D01*
Y50676D01*
X217324Y48631D01*
X210109D01*
X209923Y49431D01*
X210336Y49707D01*
X210731Y50299D01*
X210870Y50996D01*
Y51618D01*
X208260D01*
Y52618D01*
X210870D01*
Y53240D01*
X210731Y53938D01*
X210336Y54529D01*
X210067Y54709D01*
Y57313D01*
X210522Y57403D01*
X210959Y57695D01*
X211250Y58132D01*
X211353Y58647D01*
Y59500D01*
X209047D01*
X206742D01*
Y58647D01*
X206844Y58132D01*
X207136Y57695D01*
X207573Y57403D01*
X208028Y57313D01*
Y55063D01*
X207472D01*
X206775Y54924D01*
X206184Y54529D01*
X205789Y53938D01*
X205751Y53750D01*
X198118D01*
X197494Y53625D01*
X196965Y53272D01*
X195933Y52240D01*
X194500D01*
Y46087D01*
Y39933D01*
X196362D01*
X197060Y40072D01*
X197651Y40467D01*
X198046Y41058D01*
X198185Y41756D01*
Y44369D01*
X200000D01*
X200624Y44493D01*
X201153Y44846D01*
X201507Y45376D01*
X201631Y46000D01*
X201507Y46624D01*
X201153Y47153D01*
X200624Y47507D01*
X200000Y47631D01*
X198185D01*
Y49878D01*
X198794Y50487D01*
X205751D01*
X205789Y50299D01*
X206184Y49707D01*
X206775Y49312D01*
X207472Y49174D01*
X207938D01*
X208176Y48374D01*
X207846Y48153D01*
X204847Y45153D01*
X204493Y44624D01*
X204369Y44000D01*
Y39000D01*
X204493Y38376D01*
X204847Y37846D01*
X208262Y34431D01*
X207930Y33631D01*
X197777D01*
Y36244D01*
X197669Y36785D01*
X197362Y37244D01*
X196904Y37551D01*
X196362Y37659D01*
X191638D01*
X191096Y37551D01*
X190638Y37244D01*
X190331Y36785D01*
X190223Y36244D01*
Y27583D01*
X190331Y27041D01*
X190638Y26582D01*
X191096Y26276D01*
X191638Y26168D01*
X196362D01*
X196904Y26276D01*
X197362Y26582D01*
X197669Y27041D01*
X197777Y27583D01*
Y30369D01*
X208968D01*
Y29620D01*
X209094Y28988D01*
X209452Y28452D01*
X209988Y28094D01*
X210620Y27968D01*
X215380D01*
X216012Y28094D01*
X216548Y28452D01*
X216906Y28988D01*
X217032Y29620D01*
Y34380D01*
X216906Y35012D01*
X216548Y35548D01*
X216012Y35906D01*
X215380Y36032D01*
X211275D01*
X207631Y39676D01*
Y43324D01*
X209676Y45369D01*
X218000D01*
X218624Y45493D01*
X219153Y45847D01*
X222153Y48847D01*
X222507Y49376D01*
X222631Y50000D01*
Y53824D01*
X225735Y56928D01*
X230756D01*
X231451Y57066D01*
X232040Y57460D01*
X232434Y58049D01*
X232572Y58744D01*
Y64256D01*
X232434Y64951D01*
X232040Y65540D01*
X231451Y65934D01*
X230756Y66072D01*
D02*
G37*
G36*
X53724Y52130D02*
X52000D01*
Y48636D01*
X52351Y48705D01*
X53073Y49187D01*
X53554Y49909D01*
X53724Y50760D01*
Y52130D01*
D02*
G37*
G36*
X70299Y67167D02*
X67543D01*
X67079Y67074D01*
X66685Y66811D01*
X66422Y66417D01*
X66329Y65953D01*
Y60047D01*
X66351Y59937D01*
X65707Y59293D01*
X65464Y58929D01*
X65378Y58500D01*
X65378Y58500D01*
Y55893D01*
X65216Y55784D01*
X64822Y55195D01*
X64684Y54500D01*
Y50760D01*
X64822Y50065D01*
X65216Y49476D01*
X65805Y49082D01*
X66500Y48944D01*
X67195Y49082D01*
X67784Y49476D01*
X68178Y50065D01*
X68316Y50760D01*
Y54500D01*
X68178Y55195D01*
X67784Y55784D01*
X67622Y55893D01*
Y58035D01*
X68419Y58833D01*
X70299D01*
X70764Y58926D01*
X71158Y59189D01*
X71421Y59583D01*
X71513Y60047D01*
Y65953D01*
X71421Y66417D01*
X71158Y66811D01*
X70764Y67074D01*
X70299Y67167D01*
D02*
G37*
G36*
X60457D02*
X57701D01*
X57236Y67074D01*
X56842Y66811D01*
X56579Y66417D01*
X56487Y65953D01*
Y60047D01*
X56579Y59583D01*
X56842Y59189D01*
X57236Y58926D01*
X57701Y58833D01*
X59580D01*
X60378Y58035D01*
Y55893D01*
X60216Y55784D01*
X59822Y55195D01*
X59684Y54500D01*
Y50760D01*
X59822Y50065D01*
X60216Y49476D01*
X60805Y49082D01*
X61500Y48944D01*
X62195Y49082D01*
X62784Y49476D01*
X63178Y50065D01*
X63316Y50760D01*
Y54500D01*
X63178Y55195D01*
X62784Y55784D01*
X62622Y55893D01*
Y58500D01*
X62622Y58500D01*
X62536Y58929D01*
X62293Y59293D01*
X62293Y59293D01*
X61649Y59937D01*
X61671Y60047D01*
Y65953D01*
X61578Y66417D01*
X61315Y66811D01*
X60921Y67074D01*
X60457Y67167D01*
D02*
G37*
G36*
X94749Y62640D02*
X82749D01*
X81929Y62477D01*
X81235Y62013D01*
X80770Y61318D01*
X80607Y60499D01*
Y53499D01*
X80658Y53244D01*
X74535Y47122D01*
X58465D01*
X57622Y47965D01*
Y49367D01*
X57784Y49476D01*
X58178Y50065D01*
X58316Y50760D01*
Y54500D01*
X58178Y55195D01*
X57784Y55784D01*
X57195Y56178D01*
X56500Y56316D01*
X55805Y56178D01*
X55216Y55784D01*
X54822Y55195D01*
X54684Y54500D01*
Y50760D01*
X54822Y50065D01*
X55216Y49476D01*
X55378Y49367D01*
Y47500D01*
X55378Y47500D01*
X55464Y47071D01*
X55707Y46707D01*
X57207Y45207D01*
X57571Y44964D01*
X58000Y44878D01*
X58000Y44878D01*
X75000D01*
X75000Y44878D01*
X75429Y44964D01*
X75793Y45207D01*
X82077Y51491D01*
X82749Y51358D01*
X94749D01*
X95568Y51521D01*
X96263Y51985D01*
X96727Y52679D01*
X96890Y53499D01*
Y60499D01*
X96727Y61318D01*
X96263Y62013D01*
X95568Y62477D01*
X94749Y62640D01*
D02*
G37*
G36*
X168007Y45291D02*
X166088D01*
X165729Y45220D01*
X165424Y45017D01*
X165221Y44712D01*
X165150Y44353D01*
Y44122D01*
X138000D01*
X138000Y44122D01*
X137571Y44036D01*
X137207Y43793D01*
X137207Y43793D01*
X127207Y33793D01*
X126964Y33429D01*
X126878Y33000D01*
X126878Y33000D01*
Y21830D01*
X126078Y21559D01*
X125853Y21853D01*
X125017Y22494D01*
X124044Y22897D01*
X123000Y23034D01*
X121956Y22897D01*
X120983Y22494D01*
X120147Y21853D01*
X119506Y21017D01*
X119103Y20044D01*
X118965Y19000D01*
X119103Y17956D01*
X119506Y16983D01*
X120147Y16147D01*
X120441Y15922D01*
X120170Y15122D01*
X118110D01*
X118110Y15122D01*
X117681Y15036D01*
X117317Y14793D01*
X117317Y14793D01*
X115018Y12494D01*
X115017Y12494D01*
X114044Y12897D01*
X113000Y13035D01*
X111956Y12897D01*
X110983Y12494D01*
X110147Y11853D01*
X109506Y11017D01*
X109103Y10044D01*
X108966Y9000D01*
X109103Y7956D01*
X109506Y6983D01*
X110147Y6147D01*
X110983Y5506D01*
X111956Y5103D01*
X113000Y4966D01*
X114044Y5103D01*
X115017Y5506D01*
X115853Y6147D01*
X116494Y6983D01*
X116897Y7956D01*
X117034Y9000D01*
X116897Y10044D01*
X116558Y10862D01*
X118575Y12878D01*
X120170D01*
X120441Y12078D01*
X120147Y11853D01*
X119506Y11017D01*
X119103Y10044D01*
X118965Y9000D01*
X119103Y7956D01*
X119506Y6983D01*
X120147Y6147D01*
X120983Y5506D01*
X121956Y5103D01*
X123000Y4966D01*
X124044Y5103D01*
X125017Y5506D01*
X125853Y6147D01*
X126494Y6983D01*
X126897Y7956D01*
X127034Y9000D01*
X126897Y10044D01*
X126558Y10862D01*
X128575Y12878D01*
X130170D01*
X130441Y12078D01*
X130147Y11853D01*
X129506Y11017D01*
X129103Y10044D01*
X128965Y9000D01*
X129103Y7956D01*
X129506Y6983D01*
X130147Y6147D01*
X130983Y5506D01*
X131956Y5103D01*
X133000Y4966D01*
X134044Y5103D01*
X135017Y5506D01*
X135853Y6147D01*
X136494Y6983D01*
X136897Y7956D01*
X137034Y9000D01*
X136897Y10044D01*
X136558Y10862D01*
X138575Y12878D01*
X139513D01*
X139767Y12339D01*
X139816Y12078D01*
X139157Y11219D01*
X138713Y10149D01*
X138628Y9500D01*
X147372D01*
X147287Y10149D01*
X146843Y11219D01*
X146184Y12078D01*
X146233Y12339D01*
X146487Y12878D01*
X150170D01*
X150441Y12078D01*
X150147Y11853D01*
X149506Y11017D01*
X149103Y10044D01*
X148966Y9000D01*
X149103Y7956D01*
X149506Y6983D01*
X150147Y6147D01*
X150983Y5506D01*
X151956Y5103D01*
X153000Y4966D01*
X154044Y5103D01*
X155017Y5506D01*
X155853Y6147D01*
X156494Y6983D01*
X156897Y7956D01*
X157035Y9000D01*
X156897Y10044D01*
X156494Y11017D01*
X155853Y11853D01*
X155460Y12154D01*
X155449Y12447D01*
X155584Y13067D01*
X155793Y13207D01*
X158677Y16091D01*
X159171Y16160D01*
X159682Y16097D01*
X159862Y15862D01*
X160781Y15157D01*
X161851Y14713D01*
X162500Y14628D01*
Y19000D01*
Y23372D01*
X161851Y23287D01*
X160781Y22843D01*
X159922Y22184D01*
X159661Y22233D01*
X159122Y22488D01*
Y24535D01*
X162465Y27878D01*
X165150D01*
Y27647D01*
X165221Y27288D01*
X165424Y26983D01*
X165729Y26780D01*
X166088Y26709D01*
X168007D01*
X168366Y26780D01*
X168670Y26983D01*
X168873Y27288D01*
X168945Y27647D01*
Y30353D01*
X168873Y30712D01*
X168670Y31017D01*
X168366Y31220D01*
X168007Y31291D01*
X166088D01*
X165729Y31220D01*
X165424Y31017D01*
X165221Y30712D01*
X165150Y30353D01*
Y30122D01*
X162000D01*
X161571Y30036D01*
X161207Y29793D01*
X161207Y29793D01*
X157207Y25793D01*
X156964Y25429D01*
X156878Y25000D01*
X156878Y25000D01*
Y21830D01*
X156078Y21559D01*
X155853Y21853D01*
X155017Y22494D01*
X154044Y22897D01*
X153000Y23034D01*
X151956Y22897D01*
X150983Y22494D01*
X150147Y21853D01*
X149506Y21017D01*
X149103Y20044D01*
X148966Y19000D01*
X149103Y17956D01*
X149506Y16983D01*
X150147Y16147D01*
X150441Y15922D01*
X150170Y15122D01*
X145830D01*
X145559Y15922D01*
X145853Y16147D01*
X146494Y16983D01*
X146897Y17956D01*
X147035Y19000D01*
X146897Y20044D01*
X146494Y21017D01*
X145853Y21853D01*
X145017Y22494D01*
X144122Y22865D01*
Y29224D01*
X144514Y29486D01*
X144978Y30181D01*
X145141Y31000D01*
X144978Y31819D01*
X144514Y32514D01*
X143819Y32978D01*
X143000Y33141D01*
X142181Y32978D01*
X141486Y32514D01*
X141022Y31819D01*
X140859Y31000D01*
X141022Y30181D01*
X141486Y29486D01*
X141878Y29224D01*
Y22865D01*
X140983Y22494D01*
X140147Y21853D01*
X139922Y21559D01*
X139122Y21830D01*
Y31535D01*
X142465Y34878D01*
X165150D01*
Y34647D01*
X165221Y34288D01*
X165424Y33983D01*
X165729Y33780D01*
X166088Y33709D01*
X168007D01*
X168366Y33780D01*
X168670Y33983D01*
X168873Y34288D01*
X168945Y34647D01*
Y37353D01*
X168873Y37712D01*
X168670Y38017D01*
X168366Y38220D01*
X168007Y38291D01*
X166088D01*
X165729Y38220D01*
X165424Y38017D01*
X165221Y37712D01*
X165150Y37353D01*
Y37122D01*
X142000D01*
X141571Y37036D01*
X141207Y36793D01*
X141207Y36793D01*
X137207Y32793D01*
X136964Y32429D01*
X136878Y32000D01*
X136878Y32000D01*
Y21830D01*
X136078Y21559D01*
X135853Y21853D01*
X135017Y22494D01*
X134122Y22865D01*
Y29224D01*
X134514Y29486D01*
X134978Y30181D01*
X135141Y31000D01*
X134978Y31819D01*
X134514Y32514D01*
X133819Y32978D01*
X133000Y33141D01*
X132181Y32978D01*
X131486Y32514D01*
X131022Y31819D01*
X130859Y31000D01*
X131022Y30181D01*
X131486Y29486D01*
X131878Y29224D01*
Y22865D01*
X130983Y22494D01*
X130147Y21853D01*
X129922Y21559D01*
X129122Y21830D01*
Y32535D01*
X138465Y41878D01*
X165150D01*
Y41647D01*
X165221Y41288D01*
X165424Y40983D01*
X165729Y40780D01*
X166088Y40709D01*
X168007D01*
X168366Y40780D01*
X168670Y40983D01*
X168873Y41288D01*
X168945Y41647D01*
Y44353D01*
X168873Y44712D01*
X168670Y45017D01*
X168366Y45220D01*
X168007Y45291D01*
D02*
G37*
G36*
X230756Y49072D02*
X225244D01*
X224549Y48934D01*
X223960Y48540D01*
X223566Y47951D01*
X223428Y47256D01*
Y43513D01*
X214101D01*
X214094Y43545D01*
X213788Y44004D01*
X213329Y44311D01*
X212787Y44418D01*
X211213D01*
X210671Y44311D01*
X210212Y44004D01*
X209906Y43545D01*
X209798Y43004D01*
Y40760D01*
X209906Y40218D01*
X210212Y39760D01*
X210671Y39453D01*
X211213Y39345D01*
X212787D01*
X213329Y39453D01*
X213788Y39760D01*
X214094Y40218D01*
X214101Y40251D01*
X224273D01*
X224369Y40187D01*
Y36563D01*
X223569Y35960D01*
X223000Y36035D01*
X221956Y35897D01*
X220983Y35494D01*
X220147Y34853D01*
X219506Y34017D01*
X219103Y33044D01*
X218966Y32000D01*
X219103Y30956D01*
X219506Y29983D01*
X220147Y29147D01*
X220983Y28506D01*
X221956Y28103D01*
X223000Y27966D01*
X224044Y28103D01*
X225017Y28506D01*
X225853Y29147D01*
X226494Y29983D01*
X226897Y30956D01*
X227034Y32000D01*
X226897Y33044D01*
X226737Y33430D01*
X227153Y33847D01*
X227507Y34376D01*
X227631Y35000D01*
Y39928D01*
X230756D01*
X231451Y40066D01*
X232040Y40460D01*
X232434Y41049D01*
X232572Y41744D01*
Y47256D01*
X232434Y47951D01*
X232040Y48540D01*
X231451Y48934D01*
X230756Y49072D01*
D02*
G37*
G36*
X17500Y48500D02*
X13560D01*
Y46620D01*
X13639Y46225D01*
X8207Y40793D01*
X7964Y40429D01*
X7878Y40000D01*
X7878Y40000D01*
Y25935D01*
X6933D01*
X6351Y25819D01*
X5857Y25489D01*
X5528Y24996D01*
X5412Y24413D01*
Y23437D01*
X9000D01*
X12588D01*
Y24413D01*
X12472Y24996D01*
X12143Y25489D01*
X11649Y25819D01*
X11067Y25935D01*
X10122D01*
Y39535D01*
X15225Y44639D01*
X15620Y44560D01*
X17500D01*
Y48500D01*
D02*
G37*
G36*
X167353Y55945D02*
X164647D01*
X164288Y55873D01*
X163983Y55670D01*
X163780Y55366D01*
X163709Y55007D01*
Y53088D01*
X163780Y52729D01*
X163983Y52424D01*
X164288Y52221D01*
X164647Y52150D01*
X164878D01*
Y50776D01*
X164486Y50514D01*
X164022Y49819D01*
X163859Y49000D01*
X164022Y48181D01*
X164486Y47486D01*
X165181Y47022D01*
X166000Y46859D01*
X166819Y47022D01*
X167514Y47486D01*
X167978Y48181D01*
X168141Y49000D01*
X167978Y49819D01*
X167514Y50514D01*
X167122Y50776D01*
Y52150D01*
X167353D01*
X167712Y52221D01*
X168017Y52424D01*
X168220Y52729D01*
X168291Y53088D01*
Y55007D01*
X168220Y55366D01*
X168017Y55670D01*
X167712Y55873D01*
X167353Y55945D01*
D02*
G37*
G36*
X22440Y48500D02*
X18500D01*
Y44560D01*
X20380D01*
X21168Y44717D01*
X21836Y45164D01*
X22283Y45832D01*
X22440Y46620D01*
Y48500D01*
D02*
G37*
G36*
X133849Y59873D02*
X133105Y59775D01*
X132411Y59488D01*
X131816Y59031D01*
X131359Y58436D01*
X131072Y57743D01*
X130974Y56999D01*
X131072Y56255D01*
X131359Y55561D01*
X131816Y54966D01*
X132411Y54509D01*
X133105Y54222D01*
X133849Y54124D01*
X134593Y54222D01*
X135286Y54509D01*
X135881Y54966D01*
X136338Y55561D01*
X136625Y56255D01*
X136723Y56999D01*
X136625Y57743D01*
X136338Y58436D01*
X135881Y59031D01*
X135286Y59488D01*
X134593Y59775D01*
X133849Y59873D01*
D02*
G37*
G36*
X104249Y60378D02*
X103374Y60263D01*
X102559Y59925D01*
X101859Y59388D01*
X101322Y58688D01*
X100985Y57873D01*
X100870Y56999D01*
X100985Y56124D01*
X101322Y55309D01*
X101859Y54610D01*
X102559Y54072D01*
X103374Y53735D01*
X104249Y53620D01*
X105123Y53735D01*
X105938Y54072D01*
X106638Y54610D01*
X107175Y55309D01*
X107512Y56124D01*
X107627Y56999D01*
X107512Y57873D01*
X107175Y58688D01*
X106638Y59388D01*
X105938Y59925D01*
X105123Y60263D01*
X104249Y60378D01*
D02*
G37*
G36*
X149749Y63048D02*
X144249D01*
X143273Y62854D01*
X142446Y62301D01*
X141894Y61474D01*
X141700Y60499D01*
Y60122D01*
X140000D01*
X139571Y60036D01*
X139207Y59793D01*
X138964Y59429D01*
X138878Y59000D01*
X138964Y58571D01*
X139207Y58207D01*
X139571Y57964D01*
X140000Y57878D01*
X141700D01*
Y57499D01*
X149749D01*
Y63048D01*
D02*
G37*
G36*
X17500Y64500D02*
X13560D01*
Y62620D01*
X13717Y61832D01*
X14164Y61164D01*
X14832Y60717D01*
X15620Y60560D01*
X17500D01*
Y64500D01*
D02*
G37*
G36*
X156249Y63048D02*
X150749D01*
Y57499D01*
X158798D01*
Y60499D01*
X158604Y61474D01*
X158051Y62301D01*
X157224Y62854D01*
X156249Y63048D01*
D02*
G37*
G36*
X53000Y60122D02*
X52571Y60036D01*
X52207Y59793D01*
X50707Y58293D01*
X50464Y57929D01*
X50378Y57500D01*
X50378Y57500D01*
Y56374D01*
X49927Y56072D01*
X49445Y55351D01*
X49276Y54500D01*
Y53130D01*
X53724D01*
Y54500D01*
X53554Y55351D01*
X53073Y56072D01*
X52749Y56288D01*
X52698Y57112D01*
X53793Y58207D01*
X54036Y58571D01*
X54122Y59000D01*
X54036Y59429D01*
X53793Y59793D01*
X53429Y60036D01*
X53000Y60122D01*
D02*
G37*
G36*
X20380Y53440D02*
X18500D01*
Y49500D01*
X22440D01*
Y51380D01*
X22283Y52168D01*
X21836Y52836D01*
X21168Y53283D01*
X20380Y53440D01*
D02*
G37*
G36*
X17500D02*
X15620D01*
X14832Y53283D01*
X14164Y52836D01*
X13717Y52168D01*
X13560Y51380D01*
Y49500D01*
X17500D01*
Y53440D01*
D02*
G37*
G36*
X212000Y64020D02*
X204953D01*
X204563Y63942D01*
X204232Y63721D01*
X202802Y62291D01*
X200993D01*
X200634Y62220D01*
X200330Y62016D01*
X200127Y61712D01*
X200055Y61353D01*
Y58647D01*
X200127Y58288D01*
X200330Y57983D01*
X200634Y57780D01*
X200993Y57709D01*
X202912D01*
X203271Y57780D01*
X203576Y57983D01*
X203779Y58288D01*
X203850Y58647D01*
Y60456D01*
X205375Y61980D01*
X206051D01*
X206742Y61353D01*
Y60500D01*
X209047D01*
X211353D01*
Y61074D01*
X212096Y61433D01*
X212123Y61436D01*
X213055Y60503D01*
Y58647D01*
X213127Y58288D01*
X213330Y57983D01*
X213634Y57780D01*
X213933Y57721D01*
Y54211D01*
X213646Y53781D01*
X213538Y53240D01*
Y50996D01*
X213646Y50455D01*
X213952Y49996D01*
X214411Y49689D01*
X214953Y49582D01*
X216528D01*
X217069Y49689D01*
X217528Y49996D01*
X217834Y50455D01*
X217942Y50996D01*
Y53240D01*
X217834Y53781D01*
X217528Y54240D01*
X217069Y54547D01*
X216528Y54655D01*
X215972D01*
Y57721D01*
X216271Y57780D01*
X216576Y57983D01*
X216779Y58288D01*
X216850Y58647D01*
Y61353D01*
X216779Y61712D01*
X216576Y62016D01*
X216271Y62220D01*
X215912Y62291D01*
X214151D01*
X212721Y63721D01*
X212390Y63942D01*
X212000Y64020D01*
D02*
G37*
G36*
X158798Y56499D02*
X150749D01*
Y50950D01*
X156249D01*
X157224Y51144D01*
X158051Y51696D01*
X158604Y52523D01*
X158798Y53499D01*
Y56499D01*
D02*
G37*
G36*
X149749D02*
X141700D01*
Y56122D01*
X140000D01*
X139571Y56036D01*
X139207Y55793D01*
X138964Y55429D01*
X138878Y55000D01*
X138964Y54571D01*
X139207Y54207D01*
X139571Y53964D01*
X140000Y53878D01*
X141700D01*
Y53499D01*
X141894Y52523D01*
X142446Y51696D01*
X143273Y51144D01*
X144249Y50950D01*
X149749D01*
Y56499D01*
D02*
G37*
%LPD*%
D10*
X11953Y7000D02*
D03*
X6047D02*
D03*
X172953Y43000D02*
D03*
X167047D02*
D03*
X172953Y36000D02*
D03*
X167047D02*
D03*
X172953Y29000D02*
D03*
X167047D02*
D03*
X42953Y38000D02*
D03*
X37047D02*
D03*
X42953Y45000D02*
D03*
X37047D02*
D03*
X201953Y60000D02*
D03*
X196047D02*
D03*
X209047D02*
D03*
X214953D02*
D03*
D11*
X9000Y15063D02*
D03*
Y22937D02*
D03*
D12*
X166000Y59953D02*
D03*
Y54047D02*
D03*
X174000Y59953D02*
D03*
Y54047D02*
D03*
X30000Y39047D02*
D03*
Y44953D02*
D03*
X74000Y31047D02*
D03*
Y36953D02*
D03*
X44000Y54047D02*
D03*
Y59953D02*
D03*
X36000Y54047D02*
D03*
Y59953D02*
D03*
D13*
X68921Y63000D02*
D03*
X59079D02*
D03*
D14*
X66500Y52630D02*
D03*
X61500D02*
D03*
X56500D02*
D03*
X51500D02*
D03*
X66500Y31370D02*
D03*
X61500D02*
D03*
X56500D02*
D03*
X51500D02*
D03*
D15*
X88749Y56999D02*
D03*
X150249D02*
D03*
D16*
X194000Y46087D02*
D03*
Y31913D02*
D03*
D17*
X228000Y61500D02*
D03*
Y44500D02*
D03*
D18*
X215740Y52118D02*
D03*
X208260D02*
D03*
X212000Y41882D02*
D03*
D19*
X192000Y46000D02*
X198118Y52118D01*
X194000Y46000D02*
X200000D01*
X225382Y41882D02*
X226000Y41264D01*
X193913Y32000D02*
X194000Y31913D01*
X209000Y47000D02*
X218000D01*
X221000Y50000D01*
Y54500D01*
X228000Y61500D01*
X212000Y41882D02*
X225382D01*
X223000Y32000D02*
X226000Y35000D01*
Y41264D01*
X206000Y39000D02*
X213000Y32000D01*
X206000Y39000D02*
Y44000D01*
X209000Y47000D01*
X198118Y52118D02*
X208260D01*
X188000Y46000D02*
X192000D01*
X194000Y31913D02*
X194087Y32000D01*
X213000D01*
D20*
X172953Y43000D02*
X176000D01*
X172953Y36000D02*
X176000D01*
X172953Y29000D02*
X175757D01*
X158000Y17000D02*
Y25000D01*
X155000Y14000D02*
X158000Y17000D01*
X138110Y14000D02*
X155000D01*
X162000Y29000D02*
X167047D01*
X158000Y25000D02*
X162000Y29000D01*
X142000Y36000D02*
X167047D01*
X138000Y32000D02*
X142000Y36000D01*
X138000Y17000D02*
Y32000D01*
Y43000D02*
X167047D01*
X128000Y33000D02*
X138000Y43000D01*
X128000Y17000D02*
Y33000D01*
X166000Y63000D02*
X178000Y75000D01*
X166000Y59953D02*
Y63000D01*
X188000Y69000D02*
Y75000D01*
X186000Y67000D02*
X188000Y69000D01*
X178000Y67000D02*
X186000D01*
X174000Y63000D02*
X178000Y67000D01*
X174000Y59953D02*
Y63000D01*
Y49000D02*
Y54047D01*
X166000Y49000D02*
Y54047D01*
X140000Y59000D02*
X148247D01*
X140000Y55000D02*
X148250D01*
X125000Y14000D02*
X128000Y17000D01*
X118110Y14000D02*
X125000D01*
X135000D02*
X138000Y17000D01*
X128110Y14000D02*
X135000D01*
X209000Y66000D02*
X218000Y75000D01*
X201000Y68000D02*
X208000Y75000D01*
X148247Y59000D02*
X150249Y56999D01*
X148250Y55000D02*
X150249Y56999D01*
X74000Y36953D02*
Y42000D01*
X51500Y57500D02*
X53000Y59000D01*
X51500Y52630D02*
Y57500D01*
X48953Y59953D02*
X53000Y64000D01*
X44000Y59953D02*
X48953D01*
X9000Y40000D02*
X18000Y49000D01*
X9000Y22937D02*
Y40000D01*
X58000Y46000D02*
X75000D01*
X85999Y56999D02*
X88749D01*
X75000Y46000D02*
X85999Y56999D01*
X56500Y47500D02*
X58000Y46000D01*
X56500Y47500D02*
Y52630D01*
X18000Y39000D02*
X29953D01*
X30000Y39047D01*
Y33000D02*
Y39047D01*
X61500Y36500D02*
X64000Y39000D01*
X61500Y31370D02*
Y36500D01*
X40000Y40953D02*
X42953Y38000D01*
X40000Y40953D02*
Y47000D01*
X36000Y51000D02*
X40000Y47000D01*
X36000Y51000D02*
Y54047D01*
X44000Y50000D02*
Y54047D01*
X42953Y48953D02*
X44000Y50000D01*
X42953Y45000D02*
Y48953D01*
X46000Y66000D02*
X48000Y68000D01*
X39000Y66000D02*
X46000D01*
X36000Y63000D02*
X39000Y66000D01*
X48000Y68000D02*
Y75000D01*
X36000Y59953D02*
Y63000D01*
X53000Y70000D02*
X58000Y75000D01*
X53000Y64000D02*
Y70000D01*
X68921Y60921D02*
Y63000D01*
X66500Y58500D02*
X68921Y60921D01*
X66500Y52630D02*
Y58500D01*
X59079Y60921D02*
Y63000D01*
Y60921D02*
X61500Y58500D01*
Y52630D02*
Y58500D01*
X47370Y31370D02*
X51500D01*
X38000Y22000D02*
X47370Y31370D01*
X38000Y13890D02*
Y22000D01*
X56500Y26500D02*
Y31370D01*
X55000Y25000D02*
X56500Y26500D01*
X51000Y25000D02*
X55000D01*
X48000Y22000D02*
X51000Y25000D01*
X48000Y13890D02*
Y22000D01*
X56500Y31370D02*
Y39500D01*
X51000Y45000D02*
X56500Y39500D01*
X42953Y45000D02*
X51000D01*
X51500Y31370D02*
Y36500D01*
X50000Y38000D02*
X51500Y36500D01*
X42953Y38000D02*
X50000D01*
X9000Y9953D02*
Y15063D01*
X6047Y7000D02*
X9000Y9953D01*
X176000Y43000D02*
X178000Y45000D01*
Y55000D01*
X198000Y75000D01*
X176000Y36000D02*
X180000Y40000D01*
Y54000D01*
X175757Y29000D02*
X182000Y35243D01*
Y53000D01*
X33055Y8945D02*
X38000Y13890D01*
X43055Y8945D02*
X48000Y13890D01*
X113055Y8945D02*
X118110Y14000D01*
X123055Y8945D02*
X128110Y14000D01*
X133055Y8945D02*
X138110Y14000D01*
X173000Y19000D02*
X184000Y30000D01*
X180000Y54000D02*
X194000Y68000D01*
X182000Y53000D02*
X195000Y66000D01*
X194000Y68000D02*
X201000D01*
X195000Y66000D02*
X209000D01*
X184000Y30000D02*
Y52000D01*
X192000Y60000D01*
X196047D01*
X143000Y19110D02*
Y31000D01*
Y19110D02*
X143110Y19000D01*
X133000Y19110D02*
Y31000D01*
Y19110D02*
X133110Y19000D01*
D21*
X30000Y45000D02*
Y67000D01*
Y44953D02*
Y45000D01*
Y67000D02*
X38000Y75000D01*
X74000Y31047D02*
X93953D01*
X98110Y26890D01*
Y14000D02*
Y26890D01*
X108000Y13890D02*
Y43000D01*
X161000Y68000D02*
X168000Y75000D01*
X133000Y68000D02*
X161000D01*
X108000Y43000D02*
X133000Y68000D01*
X161000Y82000D02*
X168000Y75000D01*
X45000Y82000D02*
X161000D01*
X38000Y75000D02*
X45000Y82000D01*
X66500Y31370D02*
X66823Y31047D01*
X74000D01*
X37047Y38000D02*
Y45000D01*
X37000Y37953D02*
X37047Y38000D01*
X37000Y31000D02*
Y37953D01*
X28000Y22000D02*
X37000Y31000D01*
X28000Y13890D02*
Y22000D01*
X103110Y9000D02*
X108000Y13890D01*
X23055Y8945D02*
X28000Y13890D01*
X30000Y45000D02*
X37047D01*
X98110Y14000D02*
X103110Y9000D01*
X225382Y41882D02*
X228000Y44500D01*
D22*
X12925Y3075D02*
X47185D01*
X11953Y4047D02*
X12925Y3075D01*
X11953Y4047D02*
Y7000D01*
X47185Y3075D02*
X53055Y8945D01*
X212000Y63000D02*
X214953Y60047D01*
Y60000D02*
Y60047D01*
Y52905D02*
X215740Y52118D01*
X214953Y52905D02*
Y60000D01*
X208260Y52118D02*
X209047Y52905D01*
Y60000D01*
X204953Y63000D02*
X212000D01*
X201953Y60000D02*
X204953Y63000D01*
D23*
X223000Y32000D02*
D03*
X18000Y39000D02*
D03*
X168000Y75000D02*
D03*
X178000D02*
D03*
X188000D02*
D03*
X218000D02*
D03*
X208000D02*
D03*
X198000D02*
D03*
X58000D02*
D03*
X48000D02*
D03*
X38000D02*
D03*
X8000Y65000D02*
D03*
X18000Y75000D02*
D03*
X8000D02*
D03*
X33000Y9000D02*
D03*
X43000D02*
D03*
X53000D02*
D03*
X63000D02*
D03*
X73000D02*
D03*
X83000D02*
D03*
X93000D02*
D03*
X103000D02*
D03*
X113000D02*
D03*
X123000D02*
D03*
X133000D02*
D03*
X143000D02*
D03*
X153000D02*
D03*
X163000D02*
D03*
X173000D02*
D03*
X183000D02*
D03*
X193000D02*
D03*
X203000D02*
D03*
X213000D02*
D03*
X23000Y19000D02*
D03*
X33000D02*
D03*
X43000D02*
D03*
X53000D02*
D03*
X63000D02*
D03*
X73000D02*
D03*
X83000D02*
D03*
X93000D02*
D03*
X103000D02*
D03*
X113000D02*
D03*
X123000D02*
D03*
X133000D02*
D03*
X143000D02*
D03*
X153000D02*
D03*
X163000D02*
D03*
X173000D02*
D03*
X183000D02*
D03*
X193000D02*
D03*
X203000D02*
D03*
X213000D02*
D03*
D24*
Y32000D02*
D03*
X228000Y75000D02*
D03*
X68000D02*
D03*
X18000Y65000D02*
D03*
D25*
Y49000D02*
D03*
X23000Y9000D02*
D03*
D26*
X104249Y56999D02*
D03*
D27*
X133849D02*
D03*
D28*
X103000Y42000D02*
D03*
X133000Y75000D02*
D03*
X148000D02*
D03*
X103000D02*
D03*
X118000Y42000D02*
D03*
Y75000D02*
D03*
X88000Y42000D02*
D03*
Y75000D02*
D03*
X143000Y31000D02*
D03*
X133000D02*
D03*
X174000Y49000D02*
D03*
X166000D02*
D03*
X140000Y59000D02*
D03*
Y55000D02*
D03*
X53000Y59000D02*
D03*
X74000Y42000D02*
D03*
X30000Y33000D02*
D03*
X64000Y39000D02*
D03*
D29*
X200000Y46000D02*
D03*
X188000D02*
D03*
M02*
