G04 Layer_Color=255*
%FSLAX25Y25*%
%MOIN*%
G70*
G01*
G75*
%ADD23C,0.06800*%
G04:AMPARAMS|DCode=24|XSize=68mil|YSize=68mil|CornerRadius=10.2mil|HoleSize=0mil|Usage=FLASHONLY|Rotation=270.000|XOffset=0mil|YOffset=0mil|HoleType=Round|Shape=RoundedRectangle|*
%AMROUNDEDRECTD24*
21,1,0.06800,0.04760,0,0,270.0*
21,1,0.04760,0.06800,0,0,270.0*
1,1,0.02040,-0.02380,-0.02380*
1,1,0.02040,-0.02380,0.02380*
1,1,0.02040,0.02380,0.02380*
1,1,0.02040,0.02380,-0.02380*
%
%ADD24ROUNDEDRECTD24*%
G04:AMPARAMS|DCode=25|XSize=68mil|YSize=68mil|CornerRadius=10.2mil|HoleSize=0mil|Usage=FLASHONLY|Rotation=180.000|XOffset=0mil|YOffset=0mil|HoleType=Round|Shape=RoundedRectangle|*
%AMROUNDEDRECTD25*
21,1,0.06800,0.04760,0,0,180.0*
21,1,0.04760,0.06800,0,0,180.0*
1,1,0.02040,-0.02380,0.02380*
1,1,0.02040,0.02380,0.02380*
1,1,0.02040,0.02380,-0.02380*
1,1,0.02040,-0.02380,-0.02380*
%
%ADD25ROUNDEDRECTD25*%
%ADD26C,0.05500*%
%ADD27C,0.04500*%
D23*
X223000Y32000D02*
D03*
X18000Y39000D02*
D03*
X168000Y75000D02*
D03*
X178000D02*
D03*
X188000D02*
D03*
X218000D02*
D03*
X208000D02*
D03*
X198000D02*
D03*
X58000D02*
D03*
X48000D02*
D03*
X38000D02*
D03*
X8000Y65000D02*
D03*
X18000Y75000D02*
D03*
X8000D02*
D03*
X33000Y9000D02*
D03*
X43000D02*
D03*
X53000D02*
D03*
X63000D02*
D03*
X73000D02*
D03*
X83000D02*
D03*
X93000D02*
D03*
X103000D02*
D03*
X113000D02*
D03*
X123000D02*
D03*
X133000D02*
D03*
X143000D02*
D03*
X153000D02*
D03*
X163000D02*
D03*
X173000D02*
D03*
X183000D02*
D03*
X193000D02*
D03*
X203000D02*
D03*
X213000D02*
D03*
X23000Y19000D02*
D03*
X33000D02*
D03*
X43000D02*
D03*
X53000D02*
D03*
X63000D02*
D03*
X73000D02*
D03*
X83000D02*
D03*
X93000D02*
D03*
X103000D02*
D03*
X113000D02*
D03*
X123000D02*
D03*
X133000D02*
D03*
X143000D02*
D03*
X153000D02*
D03*
X163000D02*
D03*
X173000D02*
D03*
X183000D02*
D03*
X193000D02*
D03*
X203000D02*
D03*
X213000D02*
D03*
D24*
Y32000D02*
D03*
X228000Y75000D02*
D03*
X68000D02*
D03*
X18000Y65000D02*
D03*
D25*
Y49000D02*
D03*
X23000Y9000D02*
D03*
D26*
X104249Y56999D02*
D03*
D27*
X133849D02*
D03*
M02*
