G04 Layer_Color=2752767*
%FSLAX25Y25*%
%MOIN*%
G70*
G01*
G75*
%ADD46C,0.00200*%
%ADD47C,0.00267*%
D46*
X222200Y31200D02*
Y32800D01*
X223800D01*
Y31200D01*
X222200D01*
X212200D02*
Y32800D01*
X213800D01*
Y31200D01*
X212200D01*
X17200Y48200D02*
Y49800D01*
X18800D01*
Y48200D01*
X17200D01*
Y38200D02*
Y39800D01*
X18800D01*
Y38200D01*
X17200D01*
X167200Y74200D02*
Y75800D01*
X168800D01*
Y74200D01*
X167200D01*
X177200D02*
Y75800D01*
X178800D01*
Y74200D01*
X177200D01*
X187200D02*
Y75800D01*
X188800D01*
Y74200D01*
X187200D01*
X217200D02*
Y75800D01*
X218800D01*
Y74200D01*
X217200D01*
X227200D02*
Y75800D01*
X228800D01*
Y74200D01*
X227200D01*
X207200D02*
Y75800D01*
X208800D01*
Y74200D01*
X207200D01*
X197200D02*
Y75800D01*
X198800D01*
Y74200D01*
X197200D01*
X57200D02*
Y75800D01*
X58800D01*
Y74200D01*
X57200D01*
X67200D02*
Y75800D01*
X68800D01*
Y74200D01*
X67200D01*
X47200D02*
Y75800D01*
X48800D01*
Y74200D01*
X47200D01*
X37200D02*
Y75800D01*
X38800D01*
Y74200D01*
X37200D01*
X133849Y56199D02*
X133049Y57799D01*
X134649D01*
X133849Y56199D01*
X7200Y64200D02*
Y65800D01*
X8800D01*
Y64200D01*
X7200D01*
X17200D02*
Y65800D01*
X18800D01*
Y64200D01*
X17200D01*
Y74200D02*
Y75800D01*
X18800D01*
Y74200D01*
X17200D01*
X7200D02*
Y75800D01*
X8800D01*
Y74200D01*
X7200D01*
X22200Y8200D02*
Y9800D01*
X23800D01*
Y8200D01*
X22200D01*
X32200D02*
Y9800D01*
X33800D01*
Y8200D01*
X32200D01*
X42200D02*
Y9800D01*
X43800D01*
Y8200D01*
X42200D01*
X52200D02*
Y9800D01*
X53800D01*
Y8200D01*
X52200D01*
X62200D02*
Y9800D01*
X63800D01*
Y8200D01*
X62200D01*
X72200D02*
Y9800D01*
X73800D01*
Y8200D01*
X72200D01*
X82200D02*
Y9800D01*
X83800D01*
Y8200D01*
X82200D01*
X92200D02*
Y9800D01*
X93800D01*
Y8200D01*
X92200D01*
X102200D02*
Y9800D01*
X103800D01*
Y8200D01*
X102200D01*
X112200D02*
Y9800D01*
X113800D01*
Y8200D01*
X112200D01*
X122200D02*
Y9800D01*
X123800D01*
Y8200D01*
X122200D01*
X132200D02*
Y9800D01*
X133800D01*
Y8200D01*
X132200D01*
X142200D02*
Y9800D01*
X143800D01*
Y8200D01*
X142200D01*
X152200D02*
Y9800D01*
X153800D01*
Y8200D01*
X152200D01*
X162200D02*
Y9800D01*
X163800D01*
Y8200D01*
X162200D01*
X172200D02*
Y9800D01*
X173800D01*
Y8200D01*
X172200D01*
X182200D02*
Y9800D01*
X183800D01*
Y8200D01*
X182200D01*
X192200D02*
Y9800D01*
X193800D01*
Y8200D01*
X192200D01*
X202200D02*
Y9800D01*
X203800D01*
Y8200D01*
X202200D01*
X212200D02*
Y9800D01*
X213800D01*
Y8200D01*
X212200D01*
X22200Y18200D02*
Y19800D01*
X23800D01*
Y18200D01*
X22200D01*
X32200D02*
Y19800D01*
X33800D01*
Y18200D01*
X32200D01*
X42200D02*
Y19800D01*
X43800D01*
Y18200D01*
X42200D01*
X52200D02*
Y19800D01*
X53800D01*
Y18200D01*
X52200D01*
X62200D02*
Y19800D01*
X63800D01*
Y18200D01*
X62200D01*
X72200D02*
Y19800D01*
X73800D01*
Y18200D01*
X72200D01*
X82200D02*
Y19800D01*
X83800D01*
Y18200D01*
X82200D01*
X92200D02*
Y19800D01*
X93800D01*
Y18200D01*
X92200D01*
X102200D02*
Y19800D01*
X103800D01*
Y18200D01*
X102200D01*
X112200D02*
Y19800D01*
X113800D01*
Y18200D01*
X112200D01*
X122200D02*
Y19800D01*
X123800D01*
Y18200D01*
X122200D01*
X132200D02*
Y19800D01*
X133800D01*
Y18200D01*
X132200D01*
X142200D02*
Y19800D01*
X143800D01*
Y18200D01*
X142200D01*
X152200D02*
Y19800D01*
X153800D01*
Y18200D01*
X152200D01*
X162200D02*
Y19800D01*
X163800D01*
Y18200D01*
X162200D01*
X172200D02*
Y19800D01*
X173800D01*
Y18200D01*
X172200D01*
X182200D02*
Y19800D01*
X183800D01*
Y18200D01*
X182200D01*
X192200D02*
Y19800D01*
X193800D01*
Y18200D01*
X192200D01*
X202200D02*
Y19800D01*
X203800D01*
Y18200D01*
X202200D01*
X212200D02*
Y19800D01*
X213800D01*
Y18200D01*
X212200D01*
X103000Y41200D02*
X103400Y41600D01*
X103800D01*
X103400Y42000D01*
X103800Y42400D01*
X103400D01*
X103000Y42800D01*
X102600Y42400D01*
X102200D01*
X102600Y42000D01*
X102200Y41600D01*
X102600D01*
X103000Y41200D01*
X133000Y74200D02*
X133400Y74600D01*
X133800D01*
X133400Y75000D01*
X133800Y75400D01*
X133400D01*
X133000Y75800D01*
X132600Y75400D01*
X132200D01*
X132600Y75000D01*
X132200Y74600D01*
X132600D01*
X133000Y74200D01*
X148000D02*
X148400Y74600D01*
X148800D01*
X148400Y75000D01*
X148800Y75400D01*
X148400D01*
X148000Y75800D01*
X147600Y75400D01*
X147200D01*
X147600Y75000D01*
X147200Y74600D01*
X147600D01*
X148000Y74200D01*
X103000D02*
X103400Y74600D01*
X103800D01*
X103400Y75000D01*
X103800Y75400D01*
X103400D01*
X103000Y75800D01*
X102600Y75400D01*
X102200D01*
X102600Y75000D01*
X102200Y74600D01*
X102600D01*
X103000Y74200D01*
X118000Y41200D02*
X118400Y41600D01*
X118800D01*
X118400Y42000D01*
X118800Y42400D01*
X118400D01*
X118000Y42800D01*
X117600Y42400D01*
X117200D01*
X117600Y42000D01*
X117200Y41600D01*
X117600D01*
X118000Y41200D01*
Y74200D02*
X118400Y74600D01*
X118800D01*
X118400Y75000D01*
X118800Y75400D01*
X118400D01*
X118000Y75800D01*
X117600Y75400D01*
X117200D01*
X117600Y75000D01*
X117200Y74600D01*
X117600D01*
X118000Y74200D01*
X88000Y41200D02*
X88400Y41600D01*
X88800D01*
X88400Y42000D01*
X88800Y42400D01*
X88400D01*
X88000Y42800D01*
X87600Y42400D01*
X87200D01*
X87600Y42000D01*
X87200Y41600D01*
X87600D01*
X88000Y41200D01*
Y74200D02*
X88400Y74600D01*
X88800D01*
X88400Y75000D01*
X88800Y75400D01*
X88400D01*
X88000Y75800D01*
X87600Y75400D01*
X87200D01*
X87600Y75000D01*
X87200Y74600D01*
X87600D01*
X88000Y74200D01*
X143000Y30200D02*
X143400Y30600D01*
X143800D01*
X143400Y31000D01*
X143800Y31400D01*
X143400D01*
X143000Y31800D01*
X142600Y31400D01*
X142200D01*
X142600Y31000D01*
X142200Y30600D01*
X142600D01*
X143000Y30200D01*
X133000D02*
X133400Y30600D01*
X133800D01*
X133400Y31000D01*
X133800Y31400D01*
X133400D01*
X133000Y31800D01*
X132600Y31400D01*
X132200D01*
X132600Y31000D01*
X132200Y30600D01*
X132600D01*
X133000Y30200D01*
X174000Y48200D02*
X174400Y48600D01*
X174800D01*
X174400Y49000D01*
X174800Y49400D01*
X174400D01*
X174000Y49800D01*
X173600Y49400D01*
X173200D01*
X173600Y49000D01*
X173200Y48600D01*
X173600D01*
X174000Y48200D01*
X166000D02*
X166400Y48600D01*
X166800D01*
X166400Y49000D01*
X166800Y49400D01*
X166400D01*
X166000Y49800D01*
X165600Y49400D01*
X165200D01*
X165600Y49000D01*
X165200Y48600D01*
X165600D01*
X166000Y48200D01*
X140000Y58200D02*
X140400Y58600D01*
X140800D01*
X140400Y59000D01*
X140800Y59400D01*
X140400D01*
X140000Y59800D01*
X139600Y59400D01*
X139200D01*
X139600Y59000D01*
X139200Y58600D01*
X139600D01*
X140000Y58200D01*
Y54200D02*
X140400Y54600D01*
X140800D01*
X140400Y55000D01*
X140800Y55400D01*
X140400D01*
X140000Y55800D01*
X139600Y55400D01*
X139200D01*
X139600Y55000D01*
X139200Y54600D01*
X139600D01*
X140000Y54200D01*
X199200Y45200D02*
X199600Y46000D01*
X199200Y46800D01*
X200000Y46400D01*
X200800Y46800D01*
X200400Y46000D01*
X200800Y45200D01*
X200000Y45600D01*
X199200Y45200D01*
X187200D02*
X187600Y46000D01*
X187200Y46800D01*
X188000Y46400D01*
X188800Y46800D01*
X188400Y46000D01*
X188800Y45200D01*
X188000Y45600D01*
X187200Y45200D01*
X53000Y58200D02*
X53400Y58600D01*
X53800D01*
X53400Y59000D01*
X53800Y59400D01*
X53400D01*
X53000Y59800D01*
X52600Y59400D01*
X52200D01*
X52600Y59000D01*
X52200Y58600D01*
X52600D01*
X53000Y58200D01*
X74000Y41200D02*
X74400Y41600D01*
X74800D01*
X74400Y42000D01*
X74800Y42400D01*
X74400D01*
X74000Y42800D01*
X73600Y42400D01*
X73200D01*
X73600Y42000D01*
X73200Y41600D01*
X73600D01*
X74000Y41200D01*
X30000Y32200D02*
X30400Y32600D01*
X30800D01*
X30400Y33000D01*
X30800Y33400D01*
X30400D01*
X30000Y33800D01*
X29600Y33400D01*
X29200D01*
X29600Y33000D01*
X29200Y32600D01*
X29600D01*
X30000Y32200D01*
X64000Y38200D02*
X64400Y38600D01*
X64800D01*
X64400Y39000D01*
X64800Y39400D01*
X64400D01*
X64000Y39800D01*
X63600Y39400D01*
X63200D01*
X63600Y39000D01*
X63200Y38600D01*
X63600D01*
X64000Y38200D01*
D47*
X105049Y56999D02*
X104496Y57760D01*
X103601Y57469D01*
Y56529D01*
X104496Y56238D01*
X105049Y56999D01*
M02*
