G04 Layer_Color=128*
%FSLAX25Y25*%
%MOIN*%
G70*
G01*
G75*
%ADD46C,0.00200*%
D46*
X221100Y32000D02*
X224900D01*
X223000Y30100D02*
Y33900D01*
X211100Y32000D02*
X214900D01*
X213000Y30100D02*
Y33900D01*
X16100Y49000D02*
X19900D01*
X18000Y47100D02*
Y50900D01*
X16100Y39000D02*
X19900D01*
X18000Y37100D02*
Y40900D01*
X166100Y75000D02*
X169900D01*
X168000Y73100D02*
Y76900D01*
X176100Y75000D02*
X179900D01*
X178000Y73100D02*
Y76900D01*
X186100Y75000D02*
X189900D01*
X188000Y73100D02*
Y76900D01*
X216100Y75000D02*
X219900D01*
X218000Y73100D02*
Y76900D01*
X226100Y75000D02*
X229900D01*
X228000Y73100D02*
Y76900D01*
X206100Y75000D02*
X209900D01*
X208000Y73100D02*
Y76900D01*
X196100Y75000D02*
X199900D01*
X198000Y73100D02*
Y76900D01*
X56100Y75000D02*
X59900D01*
X58000Y73100D02*
Y76900D01*
X66100Y75000D02*
X69900D01*
X68000Y73100D02*
Y76900D01*
X46100Y75000D02*
X49900D01*
X48000Y73100D02*
Y76900D01*
X36100Y75000D02*
X39900D01*
X38000Y73100D02*
Y76900D01*
X101499Y56999D02*
X106999D01*
X104249Y54249D02*
Y59749D01*
X131599Y56999D02*
X136099D01*
X133849Y54749D02*
Y59249D01*
X6100Y65000D02*
X9900D01*
X8000Y63100D02*
Y66900D01*
X16100Y65000D02*
X19900D01*
X18000Y63100D02*
Y66900D01*
X16100Y75000D02*
X19900D01*
X18000Y73100D02*
Y76900D01*
X6100Y75000D02*
X9900D01*
X8000Y73100D02*
Y76900D01*
X21100Y9000D02*
X24900D01*
X23000Y7100D02*
Y10900D01*
X31100Y9000D02*
X34900D01*
X33000Y7100D02*
Y10900D01*
X41100Y9000D02*
X44900D01*
X43000Y7100D02*
Y10900D01*
X51100Y9000D02*
X54900D01*
X53000Y7100D02*
Y10900D01*
X61100Y9000D02*
X64900D01*
X63000Y7100D02*
Y10900D01*
X71100Y9000D02*
X74900D01*
X73000Y7100D02*
Y10900D01*
X81100Y9000D02*
X84900D01*
X83000Y7100D02*
Y10900D01*
X91100Y9000D02*
X94900D01*
X93000Y7100D02*
Y10900D01*
X101100Y9000D02*
X104900D01*
X103000Y7100D02*
Y10900D01*
X111100Y9000D02*
X114900D01*
X113000Y7100D02*
Y10900D01*
X121100Y9000D02*
X124900D01*
X123000Y7100D02*
Y10900D01*
X131100Y9000D02*
X134900D01*
X133000Y7100D02*
Y10900D01*
X141100Y9000D02*
X144900D01*
X143000Y7100D02*
Y10900D01*
X151100Y9000D02*
X154900D01*
X153000Y7100D02*
Y10900D01*
X161100Y9000D02*
X164900D01*
X163000Y7100D02*
Y10900D01*
X171100Y9000D02*
X174900D01*
X173000Y7100D02*
Y10900D01*
X181100Y9000D02*
X184900D01*
X183000Y7100D02*
Y10900D01*
X191100Y9000D02*
X194900D01*
X193000Y7100D02*
Y10900D01*
X201100Y9000D02*
X204900D01*
X203000Y7100D02*
Y10900D01*
X211100Y9000D02*
X214900D01*
X213000Y7100D02*
Y10900D01*
X21100Y19000D02*
X24900D01*
X23000Y17100D02*
Y20900D01*
X31100Y19000D02*
X34900D01*
X33000Y17100D02*
Y20900D01*
X41100Y19000D02*
X44900D01*
X43000Y17100D02*
Y20900D01*
X51100Y19000D02*
X54900D01*
X53000Y17100D02*
Y20900D01*
X61100Y19000D02*
X64900D01*
X63000Y17100D02*
Y20900D01*
X71100Y19000D02*
X74900D01*
X73000Y17100D02*
Y20900D01*
X81100Y19000D02*
X84900D01*
X83000Y17100D02*
Y20900D01*
X91100Y19000D02*
X94900D01*
X93000Y17100D02*
Y20900D01*
X101100Y19000D02*
X104900D01*
X103000Y17100D02*
Y20900D01*
X111100Y19000D02*
X114900D01*
X113000Y17100D02*
Y20900D01*
X121100Y19000D02*
X124900D01*
X123000Y17100D02*
Y20900D01*
X131100Y19000D02*
X134900D01*
X133000Y17100D02*
Y20900D01*
X141100Y19000D02*
X144900D01*
X143000Y17100D02*
Y20900D01*
X151100Y19000D02*
X154900D01*
X153000Y17100D02*
Y20900D01*
X161100Y19000D02*
X164900D01*
X163000Y17100D02*
Y20900D01*
X171100Y19000D02*
X174900D01*
X173000Y17100D02*
Y20900D01*
X181100Y19000D02*
X184900D01*
X183000Y17100D02*
Y20900D01*
X191100Y19000D02*
X194900D01*
X193000Y17100D02*
Y20900D01*
X201100Y19000D02*
X204900D01*
X203000Y17100D02*
Y20900D01*
X211100Y19000D02*
X214900D01*
X213000Y17100D02*
Y20900D01*
X102250Y42000D02*
X103750D01*
X103000Y41250D02*
Y42750D01*
X132250Y75000D02*
X133750D01*
X133000Y74250D02*
Y75750D01*
X147250Y75000D02*
X148750D01*
X148000Y74250D02*
Y75750D01*
X102250Y75000D02*
X103750D01*
X103000Y74250D02*
Y75750D01*
X117250Y42000D02*
X118750D01*
X118000Y41250D02*
Y42750D01*
X117250Y75000D02*
X118750D01*
X118000Y74250D02*
Y75750D01*
X87250Y42000D02*
X88750D01*
X88000Y41250D02*
Y42750D01*
X87250Y75000D02*
X88750D01*
X88000Y74250D02*
Y75750D01*
X142250Y31000D02*
X143750D01*
X143000Y30250D02*
Y31750D01*
X132250Y31000D02*
X133750D01*
X133000Y30250D02*
Y31750D01*
X173250Y49000D02*
X174750D01*
X174000Y48250D02*
Y49750D01*
X165250Y49000D02*
X166750D01*
X166000Y48250D02*
Y49750D01*
X139250Y59000D02*
X140750D01*
X140000Y58250D02*
Y59750D01*
X139250Y55000D02*
X140750D01*
X140000Y54250D02*
Y55750D01*
X199000Y46000D02*
X201000D01*
X200000Y45000D02*
Y47000D01*
X187000Y46000D02*
X189000D01*
X188000Y45000D02*
Y47000D01*
X52250Y59000D02*
X53750D01*
X53000Y58250D02*
Y59750D01*
X73250Y42000D02*
X74750D01*
X74000Y41250D02*
Y42750D01*
X29250Y33000D02*
X30750D01*
X30000Y32250D02*
Y33750D01*
X63250Y39000D02*
X64750D01*
X64000Y38250D02*
Y39750D01*
M02*
