M48
;Layer_Color=9474304
;FILE_FORMAT=2:4
INCH,TZ
;TYPE=PLATED
T1F00S00C0.0150
T2F00S00C0.0200
T3F00S00C0.0380
;TYPE=NON_PLATED
T4F00S00C0.0450
T5F00S00C0.0550
%
T01
X3000Y3300
X6400Y3900
X7400Y4200
X8800
X10300
X11800
X13300Y3100
X14300
X14000Y5500
Y5900
X13300Y7500
X14800
X11800
X10300
X8800
X5300Y5900
X16600Y4900
X17400
T02
X18800Y4600
X20000
T03
X2300Y900
X3300
X4300
X5300
X6300
X7300
X8300
X9300
X10300
X11300
X12300
X13300
X14300
X15300
Y1900
X14300
X13300
X12300
X11300
X10300
X9300
X8300
X7300
X6300
X5300
X4300
X3300
X2300
X1800Y3900
Y4900
Y6500
X800
Y7500
X1800
X3800
X4800
X5800
X6800
X16800
X17800
X18800
X19800
X20800
X21800
X22800
X22300Y3200
X21300
Y1900
Y900
X20300
X19300
X18300
X17300
X16300
Y1900
X17300
X18300
X19300
X20300
T04
X13385Y5700
T05
X10425Y5700
M30
